<?xml version="1.0" encoding="UTF-8" standalone="no"?>
<!-- Created with Inkscape (http://www.inkscape.org/) -->

<svg
   width="93.5093mm"
   height="89.63504mm"
   viewBox="0 0 93.5093 89.63504"
   version="1.1"
   id="svg1"
   xml:space="preserve"
   xmlns:inkscape="http://www.inkscape.org/namespaces/inkscape"
   xmlns:sodipodi="http://sodipodi.sourceforge.net/DTD/sodipodi-0.dtd"
   xmlns="http://www.w3.org/2000/svg"
   xmlns:svg="http://www.w3.org/2000/svg"><sodipodi:namedview
     id="namedview1"
     pagecolor="#ffffff"
     bordercolor="#000000"
     borderopacity="0.0"
     inkscape:showpageshadow="2"
     inkscape:pageopacity="0.0"
     inkscape:pagecheckerboard="0"
     inkscape:deskcolor="#d1d1d1"
     inkscape:document-units="mm" /><defs
     id="defs1" /><g
     inkscape:label="Layer 1"
     inkscape:groupmode="layer"
     id="layer1"
     transform="translate(-3.4568878,-47.84339)"><path
       style="fill:#335c79;stroke:none;stroke-width:0.0922235"
       d="M 3.4569278,47.864943 V 137.4403 c 23.1620102,0 46.3293202,0.0244 69.4934902,0.0244 h 17.81259 4.56295 1.17124 c 0.1033,0 0.34048,0.0438 0.42413,-0.0251 0.0632,-0.0521 0.0155,-0.21933 0.0151,-0.29213 -0.001,-0.27653 -1e-5,-0.5531 -1e-5,-0.82963 0,-1.1461 0.0559,-2.29376 0.0145,-3.44051 -0.0543,-1.5032 0.01,-3.02956 0.01,-4.53855 0,-2.80574 -0.02,-5.61546 -0.02,-8.41828 0,-17.4894 0.02,-34.975265 0.02,-52.461731 V 52.574298 c 0,-1.180098 -0.0334,-2.36561 -0.003,-3.545081 0.007,-0.278554 -0.047,-0.572698 -0.0146,-0.847064 0.01,-0.08212 0.058,-0.254689 -0.0391,-0.302484 -0.14611,-0.0719 -0.44055,-0.01473 -0.60226,-0.01473 h -1.48845 -5.27058 -18.81302 -67.2730202 m 9.3699102,0.63442 0.0976,-0.0488 -0.17081,0.366012 -0.0488,0.219608 9.6e-4,0.536817 0.0722,0.536818 c -0.1476,-0.08399 -0.17855,-0.306601 -0.19643,-0.463616 -0.05,-0.439178 0.0827,-0.740918 0.22083,-1.146838 -0.24326,0.296039 -0.33192,0.747061 -0.28582,1.122438 0.0234,0.190553 0.1063,0.370462 0.11502,0.561218 -0.5618,0.204518 -1.12111,0.624527 -1.63486,0.932104 -0.86903,0.52028 -1.7564601,1.014444 -2.6352801,1.518259 -0.34133,0.195677 -0.68456,0.388197 -1.02484,0.58569 -0.14679,0.0852 -0.31909,0.230272 -0.48705,0.265455 -0.14846,0.0311 -0.46931,-0.33295 -0.61098,-0.417316 -0.36253,-0.215884 -0.80636,-0.292631 -1.22004,-0.213263 -0.25562,0.04904 -0.78555,0.210964 -0.8918,0.478955 -0.0891,0.224713 -0.0354,0.656523 -0.0354,0.900649 h -0.0244 l -0.0244,-3.538116 v -2.244871 c 2.13741,0 4.2781,-0.0244 6.4174201,-0.0244 0.56011,0 1.12186,0.0244 1.68365,0.0244 0.19194,0 0.52251,-0.06376 0.68322,0.0488 m 3.51372,1.537251 c 0.0994,-0.371975 0.15767,-0.690365 0.0729,-1.073635 -0.0233,-0.105372 -0.15744,-0.346836 -0.0581,-0.437034 0.10474,-0.09512 0.34261,-0.07538 0.47328,-0.07538 h 1.22004 c 1.19433,0 2.39228,-0.05324 3.58692,-9.59e-4 0.23994,0.0105 0.55138,-0.05872 0.78082,0.0147 0.19378,0.06201 0.38613,0.237472 0.56122,0.342516 0.11577,0.06945 0.2901,0.132024 0.37578,0.238605 0.0773,0.09618 0.0634,0.265412 0.0634,0.381167 v 0.90283 1.854462 c 0,0.167111 0.0723,0.556255 -0.0251,0.695178 -0.0942,0.134383 -0.44022,0.217868 -0.58495,0.311093 -0.12016,0.07741 -0.26958,0.277755 -0.41481,0.292052 -0.20016,0.0197 -0.58214,-0.303252 -0.75642,-0.402345 -0.6933,-0.394184 -1.38143,-0.79706 -2.07407,-1.192459 -0.66087,-0.377265 -1.32031,-0.758038 -1.97647,-1.143429 -0.40434,-0.237491 -0.81384,-0.521824 -1.24444,-0.707362 m 9.0771,3.538117 h -0.0244 c -0.23828,-0.250936 -0.47847,-0.468923 -0.80523,-0.60053 -0.12969,-0.05224 -0.43719,-0.05571 -0.52868,-0.143695 -0.0961,-0.0924 -0.0325,-0.469244 -0.0325,-0.597819 V 50.50023 49.499796 c 0,-0.118238 -0.0359,-0.308126 0.0271,-0.412782 0.0676,-0.112324 0.25392,-0.185204 0.3633,-0.250781 0.0708,-0.04245 0.49769,-0.273056 0.46361,-0.312469 0.3889,-0.168798 0.99353,-0.0976 1.41525,-0.0976 1.00074,0 2.00249,0.01244 3.0013,0.0243 0.35777,0.0043 0.71584,9.3e-5 1.07363,9.3e-5 0.1564,0 0.36441,-0.03547 0.51242,0.02058 0.12438,0.04709 0.38153,0.186997 0.42229,0.321392 0.0295,0.09717 -0.0355,0.222133 -0.0559,0.316853 -0.034,0.158117 -0.0309,0.326891 -0.0238,0.488016 0.006,0.136569 0.1406,0.383664 0.0712,0.504399 -0.0726,0.126334 -0.31571,0.204761 -0.43818,0.276689 -0.38157,0.224111 -0.76411,0.446786 -1.14684,0.668914 -0.9586,0.556356 -1.92076,1.106632 -2.87929,1.662947 -0.46085,0.267468 -1.02094,0.504512 -1.41525,0.864382 m 17.39778,83.304351 v -3.63572 c 0,-0.52702 -0.1141,-1.22133 0.0322,-1.7292 0.0302,-0.10477 0.17263,-0.11492 0.26066,-0.14345 0.21402,-0.0694 0.43088,-0.17476 0.61002,-0.3113 0.66856,-0.50954 0.96478,-1.48548 0.57902,-2.257 -0.42884,-0.85768 -1.44917,-1.32905 -2.36028,-0.97104 -0.22467,0.0883 -0.43507,0.2198 -0.61002,0.38638 -0.0724,0.0689 -0.15472,0.18943 -0.26841,0.15324 -0.17453,-0.0555 -0.35481,-0.20189 -0.51242,-0.2957 -0.31385,-0.18682 -0.63434,-0.36429 -0.95163,-0.54539 -1.10836,-0.63264 -2.21473,-1.26934 -3.31851,-1.90994 -0.29385,-0.17055 -0.58702,-0.34197 -0.87843,-0.51672 -0.0869,-0.0521 -0.26866,-0.11341 -0.31203,-0.21015 -0.0394,-0.0879 0.0365,-0.24556 0.053,-0.33642 0.0379,-0.20882 0.0439,-0.40091 0.004,-0.61002 -0.19098,-0.99535 -1.19039,-1.7574 -2.20923,-1.53689 -0.76389,0.16533 -1.42906,0.83862 -1.50869,1.6345 -0.0193,0.19331 -0.0112,0.39753 0.0355,0.58562 0.0224,0.0903 0.0832,0.22393 0.0184,0.30768 -0.0831,0.10739 -0.28316,0.17184 -0.39973,0.23949 -0.30134,0.17488 -0.60071,0.35283 -0.90283,0.52646 -1.05832,0.60823 -2.11369,1.22177 -3.17211,1.83006 -0.35023,0.20128 -0.6984,0.4061 -1.04923,0.60635 -0.11066,0.0632 -0.28693,0.22212 -0.41481,0.2275 -0.13785,0.006 -0.28831,-0.20268 -0.39042,-0.27847 -0.23122,-0.17161 -0.50062,-0.27778 -0.78082,-0.33577 -0.0307,-1.65778 -0.0244,-3.3184 -0.0244,-4.97777 0,-0.51438 -0.0428,-1.05092 0.0174,-1.56165 0.0159,-0.13437 -0.0367,-0.3334 0.0217,-0.45621 0.0614,-0.12904 0.48791,-0.19506 0.6197,-0.26764 0.37593,-0.20707 0.705,-0.53336 0.86737,-0.9354 0.32155,-0.79616 0.0658,-1.69922 -0.57456,-2.23763 -0.60216,-0.50625 -1.42231,-0.52161 -2.09847,-0.17174 -0.17007,0.088 -0.41875,0.42941 -0.5878,0.44407 -0.0979,0.008 -0.21039,-0.094 -0.29063,-0.14 -0.22786,-0.13063 -0.45802,-0.25949 -0.68322,-0.39454 -1.31272,-0.78719 -2.66036,-1.51703 -3.97733,-2.29745 -0.29163,-0.1728 -0.58683,-0.33961 -0.87843,-0.51241 -0.19065,-0.11298 -0.31644,-0.22662 -0.51242,-0.0829 0.29696,-0.59963 0.2866,-1.02846 0.0732,-1.65926 0.19216,-0.01 0.37429,-0.16373 0.53682,-0.25805 0.37367,-0.21687 0.74718,-0.43425 1.12244,-0.64845 0.99449,-0.56765 1.98339,-1.14511 2.97689,-1.71467 0.45048,-0.25824 0.91107,-0.60841 1.39083,-0.80432 0.15393,-0.0629 0.45118,0.29734 0.58564,0.38283 0.36159,0.2299 0.84729,0.33116 1.26884,0.24472 0.75353,-0.15451 1.38531,-0.72859 1.52225,-1.4966 0.13302,-0.74603 -0.17654,-1.44363 -0.79022,-1.88506 -0.16886,-0.12145 -0.3591,-0.20989 -0.56122,-0.259 -0.0782,-0.019 -0.20866,-0.0115 -0.23625,-0.10443 -0.10726,-0.36144 0.008,-0.86326 -0.009,-1.24082 -0.0493,-1.12584 -0.0368,-2.26348 -0.0234,-3.39172 0.006,-0.52745 0.0243,-1.05678 0.0243,-1.586048 0,-0.1748 -0.0619,-0.49302 0.0147,-0.65116 0.041,-0.0846 0.22131,-0.0949 0.30249,-0.12162 0.22581,-0.0743 0.42257,-0.17873 0.61002,-0.32561 0.76536,-0.5997 0.93148,-1.75216 0.34745,-2.53733 -0.53915,-0.72484 -1.48308,-0.96428 -2.29951,-0.59748 -0.17901,0.0804 -0.34595,0.19538 -0.48802,0.33001 -0.0649,0.0616 -0.14268,0.16722 -0.24401,0.15381 -0.12755,-0.0169 -0.27912,-0.15387 -0.39041,-0.21767 -0.31743,-0.18198 -0.63608,-0.36151 -0.95163,-0.54683 -1.03611,-0.60852 -2.07976,-1.2066 -3.1233,-1.80226 -0.35035,-0.19997 -0.70334,-0.39651 -1.04924,-0.60394 -0.12143,-0.0728 -0.33924,-0.14672 -0.42231,-0.26326 -0.0676,-0.0949 0.0172,-0.2755 0.0277,-0.38091 0.0283,-0.28318 -0.0337,-0.55133 -0.069,-0.82963 0.51412,-0.14838 1.02396,-0.56816 1.48844,-0.83329 1.0922,-0.62343 2.17712,-1.25953 3.26971,-1.88205 0.37303,-0.21253 0.80929,-0.58468 1.22004,-0.70318 0.12359,-0.0356 0.19794,0.0948 0.27255,0.16908 0.14534,0.14473 0.32204,0.25419 0.50828,0.33814 0.59488,0.26817 1.271,0.162 1.80566,-0.18952 1.33138,-0.87532 0.8596,-3.291764 -0.82963,-3.365389 0,-1.593982 -0.008,-3.18925 -2e-5,-4.782558 0.002,-0.487993 2e-5,-0.976051 2e-5,-1.464049 0,-0.197041 -0.0481,-0.466088 0.008,-0.655223 0.0285,-0.09656 0.17834,-0.104937 0.26065,-0.129124 0.21891,-0.06432 0.42662,-0.172246 0.61002,-0.307833 0.66265,-0.489911 0.92558,-1.381821 0.63282,-2.153127 -0.35324,-0.930662 -1.46535,-1.444694 -2.38968,-1.08303 -0.2207,0.08635 -0.43849,0.211684 -0.60992,0.376384 -0.0737,0.0708 -0.15095,0.203367 -0.26886,0.168547 -0.16854,-0.04977 -0.33451,-0.185049 -0.48766,-0.270535 -0.34432,-0.192186 -0.68556,-0.390836 -1.02484,-0.591886 -1.0008,-0.593067 -2.01536,-1.166813 -3.0257,-1.743515 -0.47663,-0.27206 -0.96963,-0.653501 -1.48845,-0.833296 l 0.14131,-0.658822 -0.16571,-0.756425 c 0.18543,0.01109 0.35743,-0.138106 0.51242,-0.226458 0.39187,-0.223396 0.78367,-0.450456 1.17124,-0.681268 0.96766,-0.576279 1.95094,-1.12886 2.9281,-1.689042 l 0.97603,-0.554606 c 0.14125,-0.08081 0.28505,-0.204756 0.43921,-0.257829 0.16219,-0.05584 0.44247,0.288503 0.58562,0.373656 0.37367,0.222282 0.81479,0.31478 1.24444,0.253837 0.69821,-0.09904 1.31074,-0.645906 1.50242,-1.317625 0.21541,-0.754847 -0.0624,-1.607147 -0.72159,-2.055864 -0.16585,-0.112902 -0.3455,-0.200949 -0.53682,-0.261516 -0.0726,-0.02299 -0.21869,-0.02544 -0.26773,-0.08853 -0.0625,-0.0804 -0.0251,-0.279024 -0.0251,-0.375781 0,-0.343274 -0.008,-0.682991 -0.0234,-1.024834 -0.0597,-1.363038 0.0234,-2.737591 0.0234,-4.099336 v -1.024832 c 0,-0.136468 0.0365,-0.32667 -0.0488,-0.439214 v -0.0244 c 0.90418,0.149205 1.60558,-0.896735 1.67951,-1.683655 0.0248,-0.263721 -0.0881,-0.518999 -0.0935,-0.780825 0.52332,-0.153923 1.06736,-0.585251 1.53725,-0.863703 0.96974,-0.574659 1.94913,-1.135918 2.9281,-1.694713 0.44545,-0.254266 0.9127,-0.618259 1.39075,-0.799555 0.12421,-0.0471 0.18461,0.05547 0.26886,0.130023 0.14609,0.129259 0.30927,0.247188 0.48766,0.327545 0.55278,0.248995 1.1455,0.254761 1.68366,-0.03525 0.68315,-0.36815 1.00164,-1.021438 1.00043,-1.773704 -3.7e-4,-0.233369 -0.0546,-0.678874 -0.28682,-0.806883 -0.0611,-0.0337 -0.13553,0.0086 -0.20121,0.0047 -0.13981,-0.0082 -0.27304,-0.05068 -0.4148,-0.05185 0.32017,-0.134336 0.8955,-0.0244 1.24444,-0.0244 0.95301,0 1.902,-0.0244 2.8549,-0.0244 h 9.80912 33.99032 10.88276 c 0.89464,0 1.81844,-0.06445 2.70849,0.02026 0.20056,0.01909 0.40863,0.004 0.61002,0.0041 0.0615,2.9e-5 0.17509,-0.01905 0.2171,0.03913 0.0421,0.05824 0.0215,0.185222 0.0229,0.253683 0.004,0.203368 0.004,0.406598 0.004,0.61002 v 2.366878 9.028298 34.502739 31.403843 7.68625 1.87886 c 0,0.12786 0.0671,0.54962 -0.0391,0.63375 -0.0598,0.0473 -0.18267,0.0251 -0.25368,0.0251 h -0.68322 -2.65969 -10.24834 -39.72451 M 13.733898,48.465288 c 0.10134,-0.04186 0.25384,-0.01473 0.36178,-0.01473 h 0.78082 c 0.12122,0 0.26359,-0.02334 0.36504,0.05656 0.60663,0.477758 0.50886,1.70593 -0.21863,2.017135 -0.68831,0.294442 -1.4997,-0.151879 -1.65412,-0.878053 -0.0676,-0.318009 0.004,-1.031626 0.36511,-1.180913 m 2.04543,1.254115 h -0.0244 l -0.10833,-0.658822 -0.40408,-0.61002 c 0.57164,0.01381 0.58752,0.867593 0.53681,1.268842 m 9.1015,-1.268842 v 0.0244 c -0.74425,0.03816 -1.60073,0.243627 -2.34247,0.0244 0.17415,-0.118972 0.4613,-0.02684 0.65882,-0.0245 0.56243,0.0067 1.12288,-0.0243 1.68365,-0.0243 m 6.58822,0 v 0.0244 h -0.39041 l 0.39041,-0.0244 m 0.80523,0.0732 c 0.10633,-0.164008 0.66784,-0.0732 0.85403,-0.0732 0.21936,0 0.5736,-0.06777 0.77668,0.01811 0.46044,0.194724 0.53494,0.999736 0.39235,1.397137 -0.34635,0.965304 -1.72249,1.138902 -2.25602,0.244008 -0.19174,-0.321613 -0.24924,-0.744737 -0.11044,-1.098037 0.067,-0.170514 0.19655,-0.312593 0.24579,-0.488015 l -0.0244,-0.0488 -0.63442,0.0244 c 0.17777,-0.07458 0.5996,-0.0884 0.75643,0.0244 m 1.75686,-0.0488 -0.0244,0.0244 0.0244,-0.0244 m -1.80566,0.0488 -0.0488,0.0732 0.0488,-0.0732 m -16.00693,0.0976 c 0.25768,0.388143 0.26255,1.034014 0.0488,1.439648 l 0.1708,0.122003 0.0732,-0.0244 0.0244,0.0732 h 0.0976 v 0.0244 c -0.11941,0.0058 -0.32689,-0.02806 -0.38559,-0.1516 -0.0497,-0.104537 0.0289,-0.276075 0.0398,-0.385217 0.0203,-0.202713 0.02,-0.434831 -0.0203,-0.634422 -0.0295,-0.145993 -0.10928,-0.318956 -0.0487,-0.463615 m -2.8793,0.195207 c -0.0175,0.221096 -0.0867,0.435044 -0.071,0.658822 0.0319,0.455829 0.34919,0.859889 0.75424,1.049234 l -0.0244,0.0732 c -0.65955,-0.189998 -1.13404,-1.192481 -0.65885,-1.781257 m -0.60188,0.04067 0.008,0.01626 -0.008,-0.01626 m 2.96876,0.910962 -0.0244,0.0244 0.0244,-0.0244 m 0.0407,0.01627 -0.008,0.01626 0.008,-0.01626 m -0.0163,0.05693 -0.0244,0.0244 0.0244,-0.0244 m -0.0488,0.0976 -0.0244,0.0244 0.0244,-0.0244 m 0.80523,0.244008 0.0244,0.0244 -0.0244,-0.0244 m -0.0488,0.0244 0.0244,0.0244 -0.0244,-0.0244 m 0.14641,0.0244 0.0244,0.0244 -0.0244,-0.0244 m -0.0732,0.0244 -0.0244,0.0244 0.0244,-0.0244 m 0.1708,0 0.43922,0.268409 v 0.0244 l -0.0976,-0.0244 h -0.0976 l 0.0488,-0.0732 -0.0732,0.0488 h -0.0244 l -0.21961,-0.122004 0.0244,-0.122005 m -0.0732,0.0488 -0.0244,0.0244 0.0244,-0.0244 m 0.21961,0.0732 0.0488,0.0488 -0.0488,-0.0488 m -4.02613,0.0976 -0.0244,0.0244 0.0244,-0.0244 m 4.22133,0.0244 0.0244,0.0244 -0.0244,-0.0244 m 0.0488,0.0244 0.0244,0.0244 -0.0244,-0.0244 m -3.0013,0.0244 -0.0244,0.0244 0.0244,-0.0244 m 0.0732,0.0244 -0.0244,0.0244 0.0244,-0.0244 m 3.0745,0 0.0976,0.0488 -0.0244,0.0976 -0.122,-0.0488 0.0488,-0.0976 m -4.31894,0.0488 -0.0244,0.0244 0.0244,-0.0244 m 1.24444,0.610021 v 0.0244 c -0.46819,-0.03826 -0.81429,-0.339062 -1.17124,-0.61002 0.14027,-0.05407 0.26126,0.07517 0.36601,0.15484 0.24161,0.183751 0.52305,0.321303 0.80523,0.43078 m 7.90586,2.976897 c -0.32556,-0.368961 -0.92213,-0.584583 -1.34204,-0.834524 -1.04925,-0.624526 -2.11301,-1.227933 -3.17211,-1.835446 -0.35756,-0.205101 -0.71896,-0.404602 -1.07363,-0.614463 -0.1393,-0.08243 -0.35359,-0.16249 -0.43922,-0.302485 0.19837,0.02032 0.36973,0.153511 0.53682,0.25376 0.28976,0.17385 0.58496,0.338823 0.87843,0.506335 1.10095,0.628428 2.19496,1.267907 3.29411,1.899593 0.35137,0.201938 0.69783,0.411943 1.04923,0.613673 0.11703,0.06719 0.36134,0.146178 0.26841,0.313558 m -7.75946,-2.879296 v 2.781693 0.756425 c 0,0.09211 0.0232,0.22619 -0.0288,0.307685 -0.0725,0.113664 -0.29529,0.181218 -0.41044,0.246682 -0.34775,0.197697 -0.70207,0.383581 -1.04923,0.582189 -0.5174,0.295996 -1.04348,0.576546 -1.56166,0.871161 -0.20548,0.116827 -0.47267,0.342683 -0.70762,0.381995 -0.20183,0.03377 -0.6067101,-0.318473 -0.7808301,-0.422999 -0.61949,-0.37188 -1.23484,-0.750682 -1.85446,-1.122437 -0.18034,-0.108201 -0.62493,-0.280669 -0.72547,-0.463389 -0.064,-0.116249 0.0287,-0.333426 0.0501,-0.45409 0.0268,-0.15123 -0.0137,-0.339704 -0.0487,-0.488016 -0.0224,-0.09469 -0.0807,-0.192347 -6e-5,-0.274265 0.33472,-0.339996 0.92181,-0.559008 1.33419,-0.795718 0.91223,-0.523629 1.8280201,-1.043814 2.7328901,-1.580031 0.36307,-0.215151 0.73613,-0.413628 1.09804,-0.630656 0.15801,-0.09476 0.37987,-0.292624 0.56122,-0.325109 0.14358,-0.02572 0.32862,0.218326 0.43921,0.293464 0.27663,0.187951 0.61824,0.308883 0.95163,0.335416 m 7.68626,2.830494 c -0.13633,0.499454 -0.0985,0.839946 -0.0244,1.342045 -0.32406,0.09532 -0.63833,0.335112 -0.92723,0.50752 -0.49931,0.297974 -1.00842,0.580026 -1.51285,0.869207 -0.23224,0.133138 -0.54203,0.405062 -0.80523,0.453464 -0.0976,0.01796 -0.1901,-0.06517 -0.26841,-0.112365 -0.20913,-0.126049 -0.42039,-0.250764 -0.63442,-0.368324 -0.65807,-0.361448 -1.30133,-0.751879 -1.95206,-1.126243 -0.25852,-0.148722 -0.69503,-0.303338 -0.88811,-0.530938 -0.0693,-0.08174 -0.0345,-0.227703 -0.0413,-0.326742 -0.0217,-0.317413 -0.0222,-0.632812 -0.0222,-0.951632 v -1.903264 c 0,-0.192947 -0.0712,-0.580329 0.0491,-0.743979 0.0951,-0.129392 0.41846,-0.199371 0.56089,-0.285846 0.1218,-0.07395 0.29614,-0.278733 0.43922,-0.287973 0.12988,-0.0084 0.32911,0.169906 0.43921,0.23381 0.38946,0.226035 0.78019,0.449603 1.17124,0.672845 1.47507,0.84206 2.91745,1.760533 4.41655,2.558414 m -4.58735,-3.489314 0.122,0.0732 v 0.0976 l -0.1464,-0.0732 0.0244,-0.0976 m 0.0244,0.0488 0.0244,0.0244 -0.0244,-0.0244 m 0.1464,0.0488 v 0.0732 l 0.0732,-0.0244 -0.0244,0.0488 h 0.0244 l 0.12201,0.0244 v 0.0976 l -0.19521,-0.0976 v -0.122004 m 0.0976,0.0976 0.0244,0.0244 -0.0244,-0.0244 m 0.1464,0.0488 -0.0244,0.0244 0.0244,-0.0244 m 0,0.0488 -0.0244,0.0244 0.0244,-0.0244 m 0.0488,0 0.19521,0.0976 v 0.0732 l -0.0976,-0.0244 v -0.0488 h -0.0976 v -0.0976 m 0.0488,0.0488 0.0244,0.0244 -0.0244,-0.0244 m 0.19521,0.0732 0.0488,0.0244 0.17081,0.0976 v 0.0244 l -0.0732,-0.0244 0.0244,0.0732 c -0.087,-0.03839 -0.19269,-0.08748 -0.17081,-0.195206 m 0.21961,0.170806 h 0.0732 v 0.0488 l 0.0488,-0.0244 v 0.0488 h 0.0244 l 0.0244,-0.0244 c -0.069,0.0596 -0.14599,0.04516 -0.1708,-0.0488 m 0.244,0.0976 0.0976,0.0488 -0.0244,0.0488 h 0.0976 v 0.0976 h 0.0244 v -0.0732 c 0.0936,0.0438 0.19707,0.0827 0.19521,0.195207 l -0.17081,-0.122005 -0.0488,0.0244 -0.0488,-0.0976 -0.14641,-0.0244 0.0244,-0.0976 m 0.0244,0.0488 0.0244,0.0244 -0.0244,-0.0244 m 0.2196,0.122004 0.0488,0.0488 -0.0488,-0.0488 m 0.12201,0.0732 0.0244,0.0244 -0.0244,-0.0244 m 0.0732,0.0732 -0.0244,0.0244 0.0244,-0.0244 m 0.17081,0.0976 -0.0244,0.0244 -0.122,-0.122003 0.14641,0.0976 m -0.0488,-0.0244 0.0244,0.0244 -0.0244,-0.0244 m 0.12201,0 0.1952,0.170805 0.0488,0.0244 c 0.10299,0.0025 0.15351,0.04421 0.1708,0.146405 h -0.0244 l -0.1464,-0.146405 -0.0732,0.0244 -0.2196,-0.122004 0.0488,-0.0976 m 0.26841,0.195206 0.0244,0.0244 -0.0244,-0.0244 m 0.1952,0.0732 0.14641,0.146405 0.0732,-0.0244 0.0244,0.0732 c 0.0991,-9.2e-5 0.16756,0.03693 0.21961,0.122004 l 0.1708,0.0488 v 0.0732 l -0.1952,-0.122004 c -0.12878,-0.0088 -0.48295,-0.155579 -0.43922,-0.317211 m 0.17081,0.170807 0.0244,0.0244 -0.0244,-0.0244 m 0.31721,0.146404 0.0244,0.0244 -0.0244,-0.0244 m 0.19521,0.0976 0.1464,0.122005 0.1464,0.0732 0.34162,0.146405 v 0.0732 l 0.244,0.0732 v 0.0732 h 0.0488 l -0.0244,-0.0488 h 0.0244 l 0.122,0.122004 h 0.0976 l -0.0488,0.0732 0.12201,-0.0244 0.0244,0.0976 -0.0732,-0.0732 c -0.11563,0.01035 -0.47242,-0.150014 -0.48801,-0.268408 -0.15102,-0.01893 -0.70823,-0.263822 -0.68322,-0.439215 m 0.0488,0.0488 0.0244,0.0244 -0.0244,-0.0244 m 0.16267,0.130135 0.0163,0.0081 -0.0163,-0.0081 m 0.17894,0.06507 0.0244,0.0244 -0.0244,-0.0244 m 0.0244,0.0488 0.0244,0.0244 -0.0244,-0.0244 m 3.44051,0.195207 -0.0244,0.0244 0.0244,-0.0244 m 0.17081,0.05693 c 0.0189,0 0.004,0.01216 -0.008,0.0081 l 0.008,-0.0081 m 0.21961,0.06507 -0.0488,0.0732 0.0976,-0.0488 -0.0244,0.0488 h 0.0244 c 0.22587,-2.77e-4 0.54005,0.282212 0.61002,0.488016 l -0.80523,-0.512417 v -0.0488 h 0.14641 m -0.0732,0 0.0244,0.0244 -0.0244,-0.0244 m -3.0989,0.0244 0.0244,0.0244 -0.0244,-0.0244 m 0.24401,0.0976 -0.0244,0.0244 0.0244,-0.0244 m 0.0732,0.0488 -0.0244,0.0244 0.0244,-0.0244 m 0.0976,0.0488 -0.0244,0.0976 -0.0976,-0.0488 0.12201,-0.0488 m -0.0732,0 -0.0244,0.0488 0.0244,-0.0488 m 0.19521,0.0732 -0.0244,0.0732 0.0732,-0.0488 -0.0244,0.0976 -0.1464,-0.0976 0.122,-0.0244 m 0.0976,0.0488 0.0976,0.122003 0.0976,0.0488 -0.24401,-0.0732 0.0488,-0.0976 M 4.1401779,55.038678 h -0.0244 v 0.0732 c -0.0394,-0.116832 -0.0244,-0.266799 -0.0244,-0.390412 -8e-5,-1.124725 1.35436,-1.67167 2.14691,-0.878071 0.13704,0.137225 0.24003,0.302567 0.29936,0.487658 0.40066,1.249952 -1.32574,2.205604 -2.15309,1.170881 -0.10731,-0.134216 -0.19677,-0.297998 -0.24438,-0.463258 m 17.9345901,-1.586052 0.0244,0.0244 -0.0244,-0.0244 m 0.0488,0.0244 0.0244,0.0244 -0.0244,-0.0244 m 2.8793,1.781258 h -0.0244 c 0.13632,-0.660816 -0.0594,-1.363067 -0.75643,-1.625763 -0.21738,-0.08192 -0.43022,-0.08229 -0.65882,-0.08229 0.23471,-0.167231 0.64817,-0.06259 0.87843,0.06505 0.557,0.308775 0.86256,1.053226 0.56122,1.643003 m -1.48845,-1.708056 -0.0244,0.0244 0.0244,-0.0244 m -1.24444,0.0244 -0.0244,0.0244 0.0244,-0.0244 m 1.41524,0.01111 c 0.548,-0.01251 1.05864,0.312307 1.23176,0.842917 0.20945,0.641987 -0.1053,1.477357 -0.86574,1.511891 -0.49577,0.02251 -0.98706,-0.154304 -1.2368,-0.609061 -0.3918,-0.713426 -0.004,-1.725774 0.87078,-1.745747 m 1.83006,0.110893 -0.0244,0.0244 0.0244,-0.0244 m 0.0488,0.0732 -0.0244,0.0244 0.0244,-0.0244 m 0.0244,0.463615 -0.0244,0.0244 0.0244,-0.0244 m -2.9037,0.0488 -0.0244,0.0244 0.0244,-0.0244 m -0.65882,0.0244 v 0.0244 h -0.0732 l 0.0732,-0.0244 m 0.61002,0.0244 0.0244,0.0488 -0.0244,0.146405 c -0.0841,-0.05619 -0.0604,-0.125423 0,-0.195206 m -0.61002,0.0244 0.0488,1.049234 c -0.24761,-0.155912 -0.19576,-0.816682 -0.0976,-1.049234 h 0.0488 m 0.56122,0.122004 0.0244,0.0244 -0.0244,-0.0244 m 24.66921,2.147271 v 0.0244 l 0.4245,0.129404 0.0391,0.407415 v 0.902829 l -0.0462,0.385195 -0.41741,0.200425 c 0.13345,0.09116 0.31299,0.03689 0.46362,0.02658 0.31696,-0.0217 0.64427,0.07062 0.95163,-0.02658 -0.16484,-0.11261 -0.40078,-0.0023 -0.55064,-0.176025 -0.10569,-0.12254 -0.0838,-0.356028 -0.0838,-0.507198 0,-0.436206 -0.0303,-0.884863 0.0244,-1.317643 l 0.75643,0.0732 v -0.195207 l -0.78083,0.0244 c 0,-0.56263 -0.0632,-1.735662 0.63442,-1.932823 0.30825,-0.08712 0.42697,0.185526 0.63856,0.332026 0.0923,0.06389 0.25629,0.03361 0.31828,-0.06198 0.0981,-0.15117 -0.13641,-0.280668 -0.24922,-0.32101 -0.29905,-0.106944 -0.69369,-0.09232 -0.97603,0.05577 -0.43241,0.226809 -0.59846,0.741727 -0.65502,1.195996 -0.0212,0.169983 0.01,0.4895 -0.0951,0.628869 -0.0872,0.116118 -0.27531,0.09346 -0.3967,0.151957 m -24.66922,-2.073955 c -0.0262,0.07002 -0.0817,0.179665 0.0244,0.195206 5.5e-4,0.829348 0.72048,1.244441 1.46405,1.244441 v 0.0244 c -0.91662,0.237115 -1.7071,-0.549179 -1.53725,-1.464049 h 0.0488 m 44.45827,0.488016 c 0.11976,0.01069 0.30437,-0.07893 0.39672,0.03216 0.12867,0.154775 0.0669,0.512834 0.0669,0.699867 v 1.80566 c 0,0.257525 0.10749,0.819304 -0.14747,0.979476 -0.1269,0.07971 -0.26925,0.0044 -0.32279,-0.125543 -0.0829,-0.201193 -0.0421,-0.470579 -0.0421,-0.683127 v -3.098903 c -0.3444,0.03451 -0.68421,0.283338 -1.00044,0.414814 v 0.0244 c 0.11769,-0.01028 0.32944,-0.139691 0.41264,-0.02041 0.13346,0.191352 0.051,0.625485 0.051,0.850036 v 1.732458 c 0,0.219791 0.0617,0.550239 -0.0181,0.756329 -0.0528,0.136415 -0.20228,0.186652 -0.3235,0.244104 v 0.0488 l 0.65882,8.3e-4 1.61045,0.02353 c -0.0693,-0.132596 -0.23959,-0.144231 -0.31284,-0.272907 -0.1034,-0.181642 -0.0516,-0.675448 -0.004,-0.873931 0.25689,0.128122 0.41552,0.417822 0.59571,0.634421 0.0543,0.06524 0.17783,0.170895 0.16299,0.266109 -0.0143,0.09197 -0.15155,0.134532 -0.22189,0.173105 v 0.0488 l 0.85403,0.0044 1.41525,0.02003 -0.32689,-0.317568 -0.0147,-0.609663 V 56.45401 c -0.27052,0.0058 -0.82306,0.232874 -1.00043,0.439215 0.11307,-0.01523 0.2796,-0.09128 0.37983,-0.0063 0.12599,0.106849 0.0838,0.420158 0.0838,0.56751 0,0.329101 0.12532,1.464406 -0.488,0.964618 -0.0675,-0.05498 -0.12439,-0.118185 -0.18116,-0.183792 -0.12487,-0.144314 -0.2463,-0.290064 -0.36543,-0.439215 -0.14828,-0.185657 -0.34503,-0.375793 -0.45386,-0.585619 0.32418,-0.150956 0.54306,-0.424274 0.90283,-0.536198 0.15237,-0.0474 0.40303,-0.04884 0.48802,-0.195826 h -1.41525 l 0.23299,0.292904 -0.13636,0.243913 -0.53584,0.488016 -0.0244,-2.903696 c -0.28899,0.04332 -0.75462,0.248751 -0.97603,0.439215 m 9.0527,-0.390413 v 4.367745 c 0.13235,0 0.5719,0.06976 0.65814,-0.03913 0.0827,-0.104436 0.0251,-0.416642 0.0251,-0.546492 h 0.68323 l 0.0244,-2.415679 h 0.87843 v 4.928962 l 1.02483,0.0244 v -3.562533 -0.951632 c 0,-0.107469 -0.0337,-0.289009 0.0288,-0.382657 0.0814,-0.12192 0.77652,-0.106735 0.8175,0.04248 0.0629,0.228966 0.007,0.541983 0.008,0.779397 0.002,0.502694 0.0244,1.00826 0.0244,1.512849 l 0.65882,0.0244 c 0,0.141973 0.0794,0.433508 -6.4e-4,0.553462 -0.0761,0.114087 -0.52597,0.08087 -0.65815,0.08096 v 0.610021 h 0.68323 v 0.63442 h 0.68322 v -0.63442 h -0.68322 c 0,-0.152083 -0.0599,-0.48079 0.0626,-0.595295 0.10043,-0.09391 0.4833,-0.06315 0.62066,-0.06353 v -4.367747 h -5.53898 m 6.36861,0 v 6.295408 h 1.41524 l -0.0244,-6.295408 h -1.39084 m 2.24487,0 v 1.366446 h 1.07364 0.48801 v 0.951631 2.049668 h 0.65882 v 0.683222 h -0.63442 c 0,0.134449 -0.0604,0.463008 0.0251,0.570893 0.0825,0.104162 0.48384,0.03913 0.60934,0.03913 v 0.634421 h 0.68323 v -0.61002 l -0.65882,-0.0244 c 0,-0.134842 -0.0696,-0.555761 0.0768,-0.619694 0.13741,-0.06 0.45815,0.07086 0.55693,-0.05385 0.0882,-0.111322 0.0251,-0.45624 0.0251,-0.595294 -0.13922,0 -0.54153,0.03779 -0.64071,-0.06353 -0.0998,-0.10188 -0.0425,-0.412919 -0.0425,-0.546492 h 0.68323 v -2.415679 l 1.56165,-0.0244 0.0244,-1.342044 h -4.48975 m -31.47704,2.854894 v 0.707624 c 0,0.101844 -0.0202,0.227525 0.0566,0.307685 0.13322,0.139137 0.39674,0.180849 0.57786,0.210737 0.58803,0.09704 1.37694,-0.037 1.56344,-0.713629 0.33724,-1.223512 -1.38489,-1.268115 -1.61469,-2.220473 -0.16171,-0.670183 0.695,-0.852366 1.05413,-0.390055 0.17553,0.225957 0.22822,0.598456 0.43677,0.780468 0,-0.237211 0.0245,-0.470847 0.0244,-0.707624 -4e-5,-0.09678 0.016,-0.226392 -0.0613,-0.300077 -0.12927,-0.123154 -0.40614,-0.127812 -0.57308,-0.141228 -0.58566,-0.04707 -1.28576,0.106748 -1.41994,0.782917 -0.20817,1.048991 1.44209,1.177017 1.60381,2.074068 0.14338,0.795326 -0.67258,0.944566 -1.12818,0.414797 -0.20181,-0.234668 -0.28327,-0.613691 -0.51974,-0.80521 m 2.53768,0 v 0.707624 c 0,0.09477 -0.0216,0.225118 0.0425,0.304218 0.11971,0.147626 0.41633,0.185228 0.59191,0.214204 0.60709,0.100182 1.38214,-0.04654 1.56759,-0.738029 0.3214,-1.198398 -1.3926,-1.258494 -1.61883,-2.196073 -0.16165,-0.669908 0.69533,-0.851943 1.05413,-0.390055 0.17643,0.227113 0.2312,0.592571 0.43676,0.780468 0,-0.239588 0.13893,-0.821615 -0.0388,-1.008928 -0.11632,-0.12263 -0.41369,-0.127342 -0.57125,-0.140001 -0.59343,-0.04769 -1.30472,0.115612 -1.42831,0.807317 -0.18145,1.015577 1.42337,1.163614 1.6072,2.025268 0.17117,0.802325 -0.65802,0.980107 -1.12319,0.439197 -0.2012,-0.233959 -0.28198,-0.61745 -0.51975,-0.80521 m 2.39128,-2.464481 -0.0488,1.22004 c 0.25625,-0.235936 0.26631,-0.617097 0.61002,-0.821025 0.14037,-0.08328 0.54076,-0.213453 0.65446,-0.02743 0.0874,0.142949 0.0531,0.510319 0.0532,0.677646 v 1.634854 c 0,0.205935 0.0616,0.545039 -0.0491,0.728766 -0.0827,0.137302 -0.34535,0.161548 -0.48769,0.198465 v 0.0488 h 0.56122 1.12243 c -0.11572,-0.163818 -0.42491,-0.04443 -0.49844,-0.293185 -0.0657,-0.222163 -0.014,-0.525165 -0.014,-0.75605 v -1.610453 c 0,-0.203576 -0.0809,-0.666685 0.1953,-0.715582 0.36072,-0.06387 0.70479,0.193472 0.86287,0.495975 0.0623,0.119144 0.0746,0.312534 0.18627,0.390412 l 0.0488,-1.171238 c -0.29904,0.203427 -0.57581,0.170806 -0.92723,0.170806 -0.69902,0 -1.66427,0.173028 -2.26928,-0.170806 m -21.98512,0.0976 v 0.0488 c 0.16857,0.0072 0.41843,0.02529 0.50466,0.195659 0.0928,0.183334 0.0322,0.505572 0.0322,0.707171 v 1.634854 c 0,0.197125 0.0685,0.55432 -0.0288,0.729462 -0.0907,0.163414 -0.35219,0.163699 -0.50804,0.222169 v 0.0244 h 1.63485 c -0.14059,-0.216849 -0.57846,0.02658 -0.70683,-0.317305 -0.0757,-0.202839 -0.0252,-0.493467 -0.0252,-0.707529 v -1.537251 c 0,-0.210898 -0.0684,-0.570916 0.0453,-0.756049 0.13878,-0.225869 0.46865,-0.183477 0.68669,-0.124149 0.69631,0.189464 0.81752,1.178977 0.35869,1.656788 -0.24596,0.256125 -0.56833,0.248244 -0.89551,0.248244 0.0822,0.134371 0.27566,0.09826 0.41482,0.09759 0.42474,-0.002 0.87903,-0.241738 1.06567,-0.634403 0.0738,-0.155269 0.10529,-0.317353 0.10557,-0.488016 0.002,-1.365074 -1.78379,-1.000432 -2.68409,-1.000432 m 13.20083,0 c 0.10159,0.09511 0.23798,0.136014 0.32898,0.245061 0.3727,0.446608 0.57236,1.113371 0.82417,1.6338 0.27802,0.574599 0.60177,1.144801 0.84772,1.732458 h 0.0488 c 0.54194,-0.952257 0.6902,-2.112344 1.21498,-3.074502 0.0778,-0.14258 0.18344,-0.268391 0.32227,-0.354598 0.10963,-0.06807 0.24542,-0.09491 0.31721,-0.206621 l -1.31764,0.0244 v 0.0244 c 0.18074,0.08011 0.37729,0.127771 0.444,0.341612 0.0687,0.220315 -0.0805,0.506388 -0.16094,0.707622 -0.2097,0.524642 -0.35973,1.112948 -0.62467,1.610454 -0.2382,-0.572084 -0.54571,-1.122896 -0.81058,-1.683656 -0.0819,-0.173462 -0.30006,-0.48499 -0.24954,-0.683127 0.0515,-0.20195 0.30761,-0.186884 0.4013,-0.341707 -0.48838,0.01113 -1.11822,-0.113872 -1.58606,0.0244 m -45.2878901,0.0732 -0.0244,0.0244 0.0244,-0.0244 m 66.0529801,0.01301 c -0.43849,0.105908 -0.25865,0.76103 0.1708,0.657201 0.41628,-0.100647 0.26391,-0.762197 -0.1708,-0.657201 m -66.0529801,0.03579 v 0.683223 h -0.0244 l 0.0244,-0.683223 m 13.8352501,2.440081 -0.41481,0.303771 -0.90283,0.550257 -1.41525,0.858901 -0.56122,0.324479 -0.29281,-0.139018 -0.63442,-0.378629 -2.51328,-1.49536 v -0.0488 l 2.51328,-1.509198 0.63442,-0.376515 0.26841,-0.122623 0.29281,0.158563 0.65882,0.408636 2.36688,1.465538 M 5.6295679,63.505813 c 0.0402,-0.168822 1e-5,-0.340312 0,-0.512417 v -1.098033 -3.513717 c 0,-0.462006 -0.0235,-0.931221 0.0203,-1.390845 0.0109,-0.11488 -0.0302,-0.277506 0.0189,-0.383634 0.0446,-0.0966 0.23659,-0.125 0.32689,-0.163615 0.22601,-0.09666 0.44809,-0.225946 0.63432,-0.38731 0.0661,-0.05727 0.15513,-0.216943 0.24861,-0.222145 0.20742,-0.01154 0.59593,0.339855 0.77632,0.445691 0.56496,0.331454 1.12291,0.675132 1.68366,1.013556 0.21919,0.132287 0.58797,0.278001 0.7417001,0.485627 0.0925,0.124971 0.0391,0.404711 0.0391,0.553874 v 1.390846 1.708057 c 0,0.200793 0.066,0.542763 -0.0181,0.726561 -0.0834,0.182338 -0.5650901,0.346412 -0.7383101,0.449574 -0.62038,0.369462 -1.25247,0.720056 -1.87886,1.07917 -0.17096,0.09801 -0.34662,0.19296 -0.51242,0.299416 -0.0617,0.03962 -0.13913,0.116273 -0.21742,0.114212 -0.11373,-0.003 -0.27449,-0.20484 -0.3682,-0.269183 -0.24115,-0.165581 -0.48882,-0.224731 -0.75642,-0.325682 m 16.4949401,-7.637452 -0.0244,0.0244 0.0244,-0.0244 m 0.29281,0.0488 0.65882,0.488016 v 0.0244 c -0.23734,-6.46e-4 -0.4277,-0.09196 -0.6099,-0.242405 -0.10645,-0.08791 -0.18628,-0.175745 -0.0489,-0.270012 m -0.24401,0.0244 0.0244,0.0488 -0.0244,-0.0488 m 2.07407,0 -0.0244,0.0244 0.0244,-0.0244 m -0.122,0.03253 0.008,0.0081 c -0.012,0.004 -0.027,-0.0081 -0.008,-0.0081 m -1.92767,0.04067 c 0.18055,0.104054 0.30061,0.286274 0.48802,0.379981 0.22721,0.113604 0.64907,0.107331 0.90283,0.108034 l 0.0244,5.172971 v 1.317644 l -0.0414,0.504279 -0.49547,0.208766 -0.41481,0.288067 -0.19521,0.154536 -0.65882,-0.374822 -1.63485,-0.942142 -0.87843,-0.506996 -0.2901,-0.210796 -0.003,-1.024155 v -2.171672 -0.756425 l 0.0332,-0.287389 0.72321,-0.426334 1.58605,-0.915031 0.85403,-0.518516 m -18.1054001,0.0488 c 0.26805,0.246152 0.6307,0.455722 1.00044,0.488016 0,1.634092 0.0244,3.268928 0.0244,4.904562 v 1.390846 c 0,0.171694 0.046,0.442044 -0.0229,0.602622 -0.041,0.09545 -0.2541,0.114742 -0.34311,0.149193 -0.24667,0.09547 -0.50235,0.223526 -0.65883,0.443824 h -0.0244 c -0.12338,-0.61052 -0.0244,-1.329504 -0.0244,-1.952064 v -3.879728 -1.48845 c 0,-0.201645 -0.0482,-0.476316 0.0488,-0.658821 m 67.4194301,0.0244 c -0.23846,0.327933 -0.44859,0.460905 -0.85402,0.512417 v 0.0244 c 0.11938,0.06032 0.2674,0.09074 0.33385,0.220584 0.06,0.117192 0.0322,0.286329 0.0322,0.413838 0,0.526136 -0.20121,1.415883 0.51241,1.4953 0.11518,0.01281 0.22822,0.002 0.34162,-0.02317 0.16911,-0.03751 0.28834,-0.15263 0.43921,-0.227685 0.099,0.182005 0.29687,0.217522 0.48802,0.244008 0.47924,0.0664 1.02679,-0.17357 1.0241,-0.732025 -0.003,-0.586799 -0.82039,-0.5991 -1.03453,-1.049234 -0.21231,-0.446274 0.38088,-0.386357 0.59569,-0.208175 0.13367,0.110881 0.17549,0.321296 0.31757,0.403381 0,-0.135073 0.0598,-0.460094 -0.0391,-0.562046 -0.30368,-0.313071 -1.15154,-0.09719 -1.28366,0.293638 -0.26714,0.79028 0.76035,0.74834 0.98095,1.293242 0.0898,0.221752 -0.0389,0.472539 -0.29258,0.460077 -0.14378,-0.0071 -0.28543,-0.109345 -0.38821,-0.202403 -0.14637,-0.132519 -0.20597,-0.376413 -0.36822,-0.477282 0,0.112253 0.0379,0.309961 -0.0251,0.407415 -0.14288,0.221133 -0.60029,0.08398 -0.69101,-0.1147 -0.0693,-0.151843 -0.0403,-0.350017 -0.0403,-0.512322 v -1.073635 l 0.78083,0.0732 -0.0391,-0.216742 -0.22928,0.01483 -0.51242,0.0311 -0.0488,-0.488015 m -28.35373,0.0244 c -0.0479,0.201563 -0.24311,0.49989 -0.48802,0.460584 -0.16805,-0.02697 -0.27926,-0.174738 -0.46362,-0.124017 -0.24921,0.06857 -0.36665,0.301048 -0.56121,0.44426 -0.0289,-0.121082 -0.0115,-0.343119 -0.1288,-0.420253 -0.16869,-0.110924 -0.67037,0.246021 -0.77403,0.371451 0.15325,-0.01536 0.34201,-0.148615 0.48244,-0.03278 0.10242,0.08449 0.082,0.254422 0.0962,0.374394 0.0338,0.286501 0.007,0.590028 0.007,0.878429 -10e-6,0.126942 0.0135,0.298374 -0.0494,0.413742 -0.0727,0.133328 -0.24292,0.136289 -0.36543,0.196278 0.11146,0.07037 0.2411,0.03329 0.36601,0.02632 0.22186,-0.01238 0.43833,0.02213 0.65882,0.02248 0.11464,1.85e-4 0.25041,0.03016 0.29281,-0.0976 -0.17948,-1.7e-5 -0.40171,0.0053 -0.52623,-0.148966 -0.10595,-0.131267 -0.0594,-0.375877 -0.0594,-0.534256 0,-0.433269 -0.13712,-1.0559 0.36601,-1.26376 0.16575,-0.06847 0.2792,0.169805 0.4392,0.183214 0.15034,0.0126 0.25232,-0.287073 0.3939,-0.105455 0.0817,0.104842 0.0453,0.305189 0.0453,0.429576 0,0.341284 -0.008,0.683658 3.7e-4,1.024834 0.003,0.140263 0.0123,0.32318 0.12686,0.419955 0.28987,0.244806 0.97584,0.123106 1.16603,-0.200348 -0.20356,0.03629 -0.39232,0.173975 -0.61002,0.134353 -0.24915,-0.04535 -0.34818,-0.273013 -0.36383,-0.500365 -0.0311,-0.451569 0.0471,-0.918146 -0.002,-1.366445 0.17899,-0.02767 0.35905,-0.01355 0.53682,0.01962 0.0769,0.01435 0.20833,0.0593 0.27809,0.0041 0.0758,-0.06 0.0283,-0.180307 -0.0599,-0.188726 -0.23716,-0.02262 -0.51176,0.043 -0.755,0.043 v -0.463615 h -0.0488 m 2.9525,0.278762 c -0.25456,0.03382 -0.4803,0.103793 -0.68321,0.269469 -0.565,0.46134 -0.51575,1.434584 0.0488,1.879214 0.26367,0.207669 0.60241,0.248887 0.92723,0.200538 1.43656,-0.213823 1.15323,-2.541329 -0.29281,-2.349221 m 17.64178,1.404893 h 0.0244 c 0.0591,0.721647 0.86236,1.114841 1.51285,0.932485 0.48686,-0.136486 0.83094,-0.5312 0.89577,-1.030088 0.12755,-0.98137 -0.93497,-1.583664 -1.7742,-1.198046 -0.33152,0.152332 -0.54869,0.445321 -0.65882,0.783232 -0.12018,-0.354359 -0.27245,-0.641456 -0.63442,-0.807633 -0.8749,-0.401654 -1.90986,0.346854 -1.74989,1.29565 0.0657,0.389971 0.30737,0.74233 0.67626,0.897158 0.67108,0.28167 1.63854,-0.07594 1.70805,-0.872758 m -23.47357,0.61002 c 0.002,0.09192 0.004,0.255768 0.0869,0.316531 0.13346,0.09781 0.64627,-0.159355 0.76708,-0.243329 -0.1585,-0.04675 -0.38117,0.07115 -0.49814,-0.0787 -0.088,-0.112765 -0.0631,-0.300251 -0.0631,-0.433716 0,-0.374907 0.14948,-1.181766 -0.21999,-1.421633 -0.29887,-0.194039 -0.82497,0.0232 -1.07326,0.214508 -0.0914,0.07046 -0.25774,0.195278 -0.22665,0.32832 0.0376,0.160714 0.23476,0.199115 0.33152,0.0709 0.0909,-0.120431 0.0902,-0.28796 0.18307,-0.409863 0.18067,-0.237264 0.49744,-0.195731 0.62532,0.07093 0.0447,0.0931 0.0573,0.21505 0.0618,0.31721 0.005,0.122046 0.0411,0.350679 -0.0241,0.458064 -0.0568,0.09341 -0.22142,0.111275 -0.31654,0.147269 -0.26945,0.101963 -0.63572,0.171407 -0.81379,0.419859 -0.16865,0.235317 -0.0131,0.567474 0.27698,0.584208 0.37738,0.02177 0.57671,-0.216951 0.90283,-0.340558 m 5.68538,-1.920318 c 0.77072,-0.113556 1.06901,0.805131 1.00448,1.407901 -0.0414,0.38728 -0.16534,0.705867 -0.58966,0.770091 -0.78145,0.118287 -1.02396,-0.93115 -0.95542,-1.502115 0.0388,-0.32306 0.18537,-0.623537 0.5406,-0.675877 m 16.39735,0.0013 c 0.22775,-0.03833 0.45216,0.129648 0.56855,0.308567 0.23161,0.356028 0.2871,0.880115 0.21826,1.293225 -0.0369,0.221651 -0.11676,0.507484 -0.372,0.553176 -0.73979,0.132441 -0.86108,-1.093932 -0.79817,-1.57801 0.0296,-0.227828 0.12001,-0.532642 0.38336,-0.576958 m 2.39128,-5.53e-4 c 0.74088,-0.124679 0.87781,1.120483 0.78559,1.602322 -0.0429,0.224432 -0.10823,0.506191 -0.37078,0.553176 -0.73818,0.132107 -0.87014,-1.118303 -0.79452,-1.602411 0.0349,-0.223366 0.12255,-0.509813 0.37971,-0.553087 m -41.11536,0.0244 0.008,0.0081 c -0.012,0.004 -0.027,-0.0081 -0.008,-0.0081 m 0.36601,-0.0081 v 0.0244 h -0.21961 l 0.21961,-0.0244 m 0.0488,0.0081 0.008,0.0081 c -0.012,0.004 -0.027,-0.0081 -0.008,-0.0081 m 16.17773,1.187508 c 0.0329,0.111257 0.0244,0.226142 0.0244,0.341611 0,0.08456 0.0219,0.208479 -0.0251,0.283564 -0.11209,0.179349 -0.49982,0.295151 -0.68148,0.179825 -0.19148,-0.121569 -0.18163,-0.41613 -6.4e-4,-0.537342 0.074,-0.04955 0.16098,-0.07602 0.24355,-0.107188 0.14584,-0.05505 0.29099,-0.112157 0.43922,-0.16047 m -25.91366,6.66142 c -0.26884,-0.103388 -0.529,-0.308966 -0.78082,-0.453333 -0.62986,-0.361085 -1.24785,-0.742503 -1.87887,-1.101468 -0.24071,-0.136932 -0.8189,-0.355224 -0.93069,-0.617848 -0.11269,-0.264715 -0.0453,-0.759433 -0.0453,-1.048257 0,-0.624372 -0.0263,-1.255147 9.6e-4,-1.878863 0.0157,-0.358637 0.0832,-0.768929 -9.6e-4,-1.122436 0.28787,0.03769 0.58166,0.30934 0.82963,0.453261 0.65362,0.37935 1.29708,0.776733 1.95206,1.15354 0.21023,0.120943 0.7631,0.335076 0.85042,0.567146 0.12599,0.334867 0.028,0.861993 0.028,1.217764 0,0.943524 -0.0244,1.88896 -0.0244,2.830494 m 4.12374,-6.197805 v 2.903696 0.805227 l -0.0218,0.38529 -0.24661,0.189975 -0.63442,0.371469 -1.73246,1.020056 -0.90283,0.522092 v -2.928097 -0.805226 c 0,-0.100129 -0.0263,-0.246886 0.0251,-0.337114 0.14818,-0.260414 0.69745,-0.4624 0.95095,-0.614518 0.54428,-0.326599 1.09058,-0.649433 1.63486,-0.976033 0.30097,-0.180605 0.60333,-0.401254 0.92723,-0.536817 m 53.90138,0.31721 -0.0244,0.0244 0.0244,-0.0244 m -8.93069,4.026133 h -0.0244 l -0.62952,-1.537251 -0.2142,-0.610002 0.25811,-0.268427 -1.61046,0.0244 v 0.0244 c 0.47472,0.0924 0.59996,0.553397 0.77744,0.951632 0.38639,0.867009 0.83462,1.710022 1.19903,2.586485 h 0.0488 c 0.16157,-0.496565 0.40984,-0.965631 0.62689,-1.439647 0.34234,-0.747656 0.6585,-1.509282 1.02634,-2.244874 0.27288,-0.5457 0.64662,-0.969414 1.27487,-1.049235 v -0.0488 c -0.19579,0 -0.39704,-0.0037 -0.58562,0.05758 -0.83593,0.271739 -1.11119,1.169696 -1.4256,1.894488 -0.23988,0.552961 -0.49289,1.101622 -0.72167,1.659254 m 14.05486,-2.830493 0.0244,-0.634421 c -0.1528,0 -0.54693,-0.07121 -0.6685,0.02508 -0.0653,0.05172 -0.0391,0.194998 -0.0391,0.26773 0,0.07998 -0.0287,0.23263 0.0251,0.2991 0.0912,0.112729 0.52161,0.04251 0.65814,0.04251 m -1.36645,0.0244 c 0,0.136909 -0.0564,0.434634 0.0251,0.548678 0.0669,0.09356 0.56156,0.112503 0.63307,0.02221 0.0439,-0.05544 0.0251,-0.163556 0.0251,-0.229282 0,-0.08122 0.0287,-0.234613 -0.0251,-0.302484 -0.098,-0.123767 -0.52078,-0.05649 -0.65815,-0.03913 m 0.70763,1.244441 0.65882,0.0244 0.0244,-0.63442 c -0.13576,0 -0.59445,-0.07209 -0.68254,0.03913 -0.0858,0.108356 -6.5e-4,0.435569 -6.5e-4,0.570893 m 3.44051,-0.61002 v 0.61002 h 0.70763 c -10e-6,-0.131303 0.0515,-0.474851 -0.0425,-0.570893 -0.10791,-0.110232 -0.51729,-0.03913 -0.66512,-0.03913 m -11.98079,0.229984 c -1.15628,0.15745 -1.60956,1.640204 -0.95679,2.551708 0.31212,0.435831 0.92547,0.628106 1.4448,0.553891 1.19038,-0.170108 1.66911,-1.728144 0.91929,-2.62796 -0.34125,-0.409506 -0.8914,-0.547886 -1.4073,-0.477639 m 3.80652,0 c -1.15914,0.157844 -1.61057,1.63878 -0.95679,2.551708 0.31212,0.435831 0.92548,0.628106 1.44481,0.553891 1.18439,-0.169251 1.6664,-1.732493 0.91928,-2.62796 -0.34091,-0.408606 -0.89307,-0.547659 -1.4073,-0.477639 m -7.36904,0.01402 v 0.0244 c 0.12831,0.06448 0.31545,0.08066 0.38974,0.220663 0.083,0.156389 0.0251,0.459087 0.0251,0.633366 v 1.342044 c 0,0.17195 0.0462,0.423845 -0.0181,0.585149 -0.0599,0.150217 -0.23989,0.139388 -0.3723,0.171277 v 0.0244 h 1.51285 v -0.0244 c -0.11187,-0.02671 -0.27159,-0.01117 -0.33724,-0.125263 -0.096,-0.16691 -0.0532,-0.492228 -0.0532,-0.679964 v -1.268843 c 0,-0.19894 -0.0331,-0.470132 0.0425,-0.657844 0.0611,-0.151802 0.24458,-0.158045 0.3723,-0.220585 h -0.48801 l -1.07364,-0.0244 m 3.70892,0.17911 c 0.36277,-0.06979 0.6312,0.238271 0.73133,0.552914 0.154,0.48387 0.16486,1.131016 -0.01,1.610453 -0.0953,0.261534 -0.28099,0.511131 -0.57498,0.552914 -0.34763,0.04941 -0.56386,-0.296276 -0.65873,-0.577314 -0.16354,-0.484508 -0.15425,-1.126804 0.009,-1.610453 0.0775,-0.230295 0.24777,-0.479266 0.50374,-0.528514 m 3.80652,0 c 0.36287,-0.06938 0.63109,0.237962 0.73133,0.552914 0.15454,0.485592 0.15441,1.101349 0,1.586053 -0.0868,0.272453 -0.28415,0.534565 -0.58492,0.577314 -0.34763,0.04941 -0.56387,-0.296276 -0.65873,-0.577314 -0.16354,-0.484508 -0.15426,-1.126804 0.009,-1.610453 0.0782,-0.232261 0.24583,-0.479206 0.50373,-0.528514 m 6.93712,0.939693 c -0.0985,0.03769 -0.0651,0.275313 0.0586,0.230265 0.0982,-0.03575 0.0673,-0.278489 -0.0586,-0.230265 m -1.76415,0.101238 -0.0244,2.14727 1.34205,-0.0244 v -0.195207 h -1.04924 l -0.0244,-1.927663 h -0.24398 m 2.9037,0.474952 c -1.00179,0.178662 -0.68001,2.054057 0.34161,1.636134 0.0971,-0.03974 0.46959,-0.328106 0.30238,-0.456294 -0.0731,-0.05603 -0.17941,0.05706 -0.22918,0.09896 -0.16186,0.136242 -0.36275,0.31954 -0.5532,0.120503 -0.26534,-0.27731 -0.34886,-1.145308 0.18719,-1.181408 0.19943,-0.01343 0.42803,0.36031 0.57786,0.279948 0.11727,-0.0629 0.0145,-0.226661 -0.0437,-0.288515 -0.14572,-0.15484 -0.37049,-0.247219 -0.58296,-0.209324 m 3.46491,-6.46e-4 c -0.15978,0.02592 -0.24498,0.164926 -0.38777,0.200795 -0.0924,0.02321 -0.18984,-0.239963 -0.28291,-0.08174 -0.0609,0.103596 -0.0369,0.26789 -0.0369,0.382632 0,0.268349 -0.003,0.536895 9e-5,0.805227 9.4e-4,0.079 -0.008,0.340038 0.10042,0.35464 0.14791,0.01989 0.12197,-0.342803 0.13314,-0.427843 0.0466,-0.354943 -0.0379,-1.182402 0.57155,-1.005574 0.34656,0.100553 0.26841,0.766576 0.26843,1.054376 0,0.09134 -0.0432,0.398825 0.11946,0.379041 0.1435,-0.01746 0.10015,-0.425048 0.10015,-0.525446 0,-0.43079 0.0936,-1.246288 -0.58562,-1.136103 m -1.17124,1.258107 c -0.37997,0.08695 -0.78269,0.488808 -0.99816,-0.0976 -0.0291,-0.07923 -0.0442,-0.160309 -0.0511,-0.244008 h 1.17124 c -0.002,-0.269952 -0.0739,-0.591988 -0.29379,-0.771223 -0.54458,-0.443831 -1.14401,0.0957 -1.1693,0.673619 -0.0127,0.290588 0.11593,0.709327 0.41386,0.826012 0.32621,0.127758 0.92361,0.01745 0.92723,-0.386797 m 2.61088,-1.233104 c -0.33517,0.06042 -0.63731,0.414461 -0.33359,0.712383 0.16408,0.160947 0.44327,0.198471 0.6508,0.278297 0.10147,0.03903 0.25684,0.106522 0.21673,0.242442 -0.088,0.29835 -0.49066,0.28108 -0.70474,0.155936 -0.0655,-0.03829 -0.21792,-0.18593 -0.30151,-0.128312 -0.109,0.07514 0.0938,0.273543 0.15546,0.307173 0.2178,0.118774 0.57237,0.109047 0.80487,0.04234 0.25895,-0.07429 0.41634,-0.47472 0.21281,-0.68635 -0.17387,-0.180783 -0.45774,-0.203719 -0.67643,-0.301805 -0.0953,-0.04276 -0.22668,-0.11868 -0.20919,-0.243031 0.0479,-0.340456 0.53008,-0.133585 0.69721,-0.05521 0.0592,0.02774 0.1641,0.08176 0.22543,0.03003 0.0943,-0.07955 -0.0709,-0.188403 -0.12784,-0.221847 -0.18664,-0.109531 -0.39344,-0.171098 -0.61001,-0.132054 m 1.36645,0.915894 c 0.26015,-0.0054 0.51933,-0.02316 0.78082,-0.02442 0.0941,-4.61e-4 0.25194,0.0075 0.32341,-0.0668 0.091,-0.09456 -0.009,-0.344375 -0.052,-0.4456 -0.15857,-0.375341 -0.61278,-0.508706 -0.97905,-0.331782 -0.58438,0.282283 -0.46209,1.522245 0.21959,1.596388 0.19992,0.02174 0.43908,0.0032 0.60577,-0.120401 0.0576,-0.04275 0.17259,-0.168149 0.10106,-0.245105 -0.077,-0.08286 -0.33035,0.143242 -0.41402,0.171902 -0.3481,0.119229 -0.57236,-0.229872 -0.58562,-0.534184 m -7.49105,-0.878429 v 0.610019 0.414815 0.244007 c 9e-5,0.06132 0.009,0.444559 0.15656,0.324235 0.0971,-0.07919 0.0631,-0.312386 0.0631,-0.421838 v -0.780826 c 0,-0.09761 0.0252,-0.245378 -0.0322,-0.331031 -0.0417,-0.06239 -0.12117,-0.05777 -0.18745,-0.05938 m 2.46448,0.585619 c 0.0728,-0.28055 0.20139,-0.503714 0.53682,-0.4263 0.13025,0.03006 0.4154,0.246886 0.29177,0.411574 -0.0705,0.09398 -0.40387,0.03913 -0.51138,0.03913 -0.10798,0 -0.21321,0.0063 -0.31721,-0.0244 m 5.34378,-0.429689 c 0.16026,-0.03465 0.37368,0.03266 0.47548,0.163842 0.0574,0.07395 0.10403,0.244121 -0.0155,0.282849 -0.125,0.0405 -0.63488,0.0656 -0.73799,-0.01768 -0.17049,-0.137701 0.15885,-0.403245 0.27799,-0.42901 m -72.5924,6.383486 c -0.28382,0.02319 -0.58273,0.168452 -0.80523,0.341986 -0.097,0.07568 -0.25485,0.298064 -0.39041,0.26826 -0.15937,-0.03504 -0.34541,-0.190941 -0.48802,-0.272304 -0.37527,-0.214115 -0.74679,-0.434724 -1.12243,-0.648302 -1.02821,-0.584601 -2.0570401,-1.17044 -3.0745001,-1.773383 -0.37481,-0.222104 -0.95812,-0.425346 -1.25403,-0.745643 -0.0742,-0.08029 0.009,-0.228131 0.0288,-0.318319 0.0486,-0.225099 0.0601,-0.458658 10e-4,-0.683222 -0.0282,-0.107867 -0.1332,-0.297862 -0.0684,-0.405306 0.10765,-0.178395 0.50402,-0.317425 0.68218,-0.424321 0.60281,-0.361669 1.2198,-0.700486 1.83007,-1.049253 0.17509,-0.100063 0.5801501,-0.450277 0.7808201,-0.419973 0.21332,0.03221 0.49403,0.286859 0.68322,0.39559 0.55353,0.318116 1.11081,0.629905 1.65926,0.956529 0.35499,0.211409 0.71636,0.411811 1.07363,0.61917 0.12716,0.0738 0.3621,0.153035 0.43854,0.283886 0.0489,0.08373 0.0251,0.218874 0.0251,0.312087 v 0.756425 2.806093 m 7.88146,-4.196939 c -0.0563,0.316823 -0.15178,0.568576 -0.11784,0.90283 0.0123,0.121212 0.12402,0.345734 0.0487,0.45409 -0.0757,0.108928 -0.28208,0.172646 -0.3945,0.240094 -0.30773,0.184638 -0.61545,0.368705 -0.92723,0.546587 -1.08415,0.618569 -2.16243,1.247617 -3.2453,1.868414 -0.34196,0.196034 -0.6858,0.389036 -1.02484,0.590063 -0.10541,0.0625 -0.28846,0.22731 -0.41481,0.221901 -0.12928,-0.0055 -0.26448,-0.211851 -0.36601,-0.284452 -0.2465,-0.17625 -0.50984,-0.28161 -0.80523,-0.342588 0,-0.92545 -0.0244,-1.854313 -0.0244,-2.781692 0,-0.269529 -0.005,-0.537152 0.0203,-0.805227 0.008,-0.08573 -0.0191,-0.204201 0.0292,-0.280174 0.11763,-0.185067 0.49484,-0.316049 0.68254,-0.423798 0.53829,-0.308983 1.07134,-0.626825 1.61046,-0.934551 0.37571,-0.214455 0.74932,-0.432852 1.12243,-0.651762 0.12236,-0.07179 0.28806,-0.22855 0.43922,-0.210911 0.29392,0.0343 0.64985,0.343149 0.90283,0.489976 0.55083,0.319695 1.10674,0.631258 1.65925,0.948016 0.25712,0.147406 0.51989,0.369259 0.80523,0.453184 m 44.38507,-1.743752 c -0.44283,0.10216 -0.31143,0.800217 0.122,0.705907 0.47258,-0.102827 0.32742,-0.809592 -0.122,-0.705907 m 3.75772,0.0028 c -0.43982,0.135665 -0.27482,0.82899 0.17081,0.696538 0.45189,-0.134318 0.25513,-0.827918 -0.17081,-0.696538 M 4.0927479,64.091299 v 0.780826 h -0.0244 l 0.0244,-0.780826 m 1.22004,0.03146 c 0.69799,-0.07433 1.32579,0.640324 1.28812,1.310584 -0.0371,0.661074 -0.60725,1.146427 -1.23932,1.191142 -0.76366,0.05402 -1.4114,-0.756508 -1.2562,-1.483952 0.12541,-0.587829 0.63831,-0.957171 1.2074,-1.017774 m 18.5690201,2.77e-4 c 0.78699,-0.07386 1.40742,0.775065 1.25251,1.505522 -0.12396,0.584547 -0.62584,0.947855 -1.20371,0.996197 -0.88666,0.07418 -1.46143,-0.938245 -1.18237,-1.703821 0.17634,-0.483756 0.6444,-0.751992 1.13357,-0.797898 m -19.7890601,0.773498 -0.0244,0.0244 0.0244,-0.0244 m 0.0244,0.854028 -0.0244,0.0244 0.0244,-0.0244 m -0.0244,0.195206 -0.0244,0.0244 0.0244,-0.0244 m 0,0.0488 v 0.585619 h -0.0244 l 0.0244,-0.585619 m 8.7598901,4.026133 c -0.0446,0.25933 -0.16804,0.509516 -0.14222,0.780826 0.0137,0.144432 0.16433,0.470913 0.0918,0.597385 -0.0709,0.123612 -0.29506,0.191251 -0.41315,0.26154 -0.37205,0.221448 -0.74652,0.439071 -1.12244,0.653907 -0.9772,0.558461 -1.9576001,1.113918 -2.9281001,1.683935 -0.34827,0.204554 -0.69844,0.40586 -1.04923,0.606089 -0.12975,0.07406 -0.27328,0.204899 -0.41386,0.249805 -0.10439,0.03335 -0.18046,-0.08489 -0.24506,-0.148193 -0.15403,-0.150932 -0.33858,-0.270398 -0.53672,-0.355902 -0.48364,-0.2087 -1.00023,-0.223236 -1.48845,-0.01355 -0.16242,0.06975 -0.38026,0.183274 -0.46755,0.344733 -0.0895,0.165634 -0.0449,0.541512 -0.0449,0.732006 h -0.0244 l -0.0244,-5.953797 v -1.805659 l 0.0244,-0.927231 c 0.56939,0.37658 1.1037,0.65573 1.80566,0.430815 0.2477,-0.07936 0.49077,-0.207466 0.68322,-0.384289 0.0849,-0.07796 0.1853,-0.234679 0.31721,-0.181898 0.5604,0.224207 1.11331,0.63401 1.63486,0.940337 0.94712,0.556286 1.9049101,1.094116 2.8548901,1.64547 0.46688,0.270964 0.974,0.680863 1.48845,0.843674 m 23.42478,-2.391279 0.0244,0.585619 c 1.53682,-0.121349 3.11789,-0.0244 4.66055,-0.0244 h 8.78422 26.62128 9.34551 2.07406 c 0.17851,0 0.35846,-0.0066 0.53682,9.59e-4 0.0602,0.0025 0.15151,0.03228 0.20488,-0.0063 0.0887,-0.06408 0.0555,-0.446244 0.0635,-0.555893 h -52.31533 m -21.78992,1.861443 c 1.26524,-0.155424 1.86279,1.655722 0.75643,2.28564 -0.13929,0.0793 -0.30421,0.143831 -0.46362,0.164801 -1.28516,0.169066 -1.94279,-1.57502 -0.82963,-2.266714 0.1671,-0.103828 0.34213,-0.159808 0.53682,-0.183727 m -1.34204,0.04182 -0.0732,0.0732 0.0244,-0.0732 h 0.0488 m -0.0732,0.0976 -0.0244,0.0244 0.0244,-0.0244 m -0.0488,0.0732 -0.0488,0.0488 0.0488,-0.0488 m -0.0488,0.0732 -0.0244,0.0244 0.0244,-0.0244 m 3.29411,0 -0.0244,0.0244 0.0244,-0.0244 m -3.41611,0.195206 -0.0244,0.0244 0.0244,-0.0244 m 3.46491,1.561652 -0.0244,0.0244 0.0244,-0.0244 m -3.34291,0.122003 -0.0244,0.0244 0.0244,-0.0244 m 3.26971,0.0244 -0.0976,0.122003 0.0976,-0.122003 m -3.14771,0.170805 c 0.29498,0.338216 0.72563,0.686153 1.19564,0.707624 v 2.781691 0.805226 c 0,0.106104 0.0283,0.261845 -0.0147,0.360818 -0.0366,0.08419 -0.15485,0.119985 -0.22928,0.161953 -0.21883,0.123386 -0.44011,0.242436 -0.65883,0.366012 -0.68847,0.38899 -1.37575,0.784597 -2.07406,1.155518 -0.21866,0.116142 -0.53778,0.40244 -0.78083,0.4311 -0.11768,0.01387 -0.24694,-0.109946 -0.34161,-0.167058 -0.2766001,-0.166862 -0.5558701,-0.330096 -0.8296301,-0.501455 -0.52343,-0.327642 -1.05814,-0.637328 -1.58605,-0.95781 -0.16193,-0.0983 -0.52084,-0.236203 -0.60347,-0.412138 -0.0774,-0.164842 0.076,-0.40589 0.0593,-0.583344 -0.0139,-0.148305 -0.14177,-0.422183 -0.0977,-0.556721 0.0389,-0.118846 0.24848,-0.198048 0.34901,-0.255356 0.32703,-0.186432 0.6494,-0.381233 0.97603,-0.568487 1.14073,-0.653955 2.2753601,-1.31865 3.4161101,-1.972628 0.29252,-0.167697 0.5879,-0.331383 0.87843,-0.502397 0.13192,-0.07765 0.28391,-0.143838 0.34161,-0.292548 m 3.0013,0.0488 c 0.72156,0.554564 1.62487,0.96018 2.41568,1.411577 1.21362,0.692736 2.40239,1.445711 3.63572,2.102138 -0.0453,0.306523 -0.1192,0.560975 -0.0954,0.878429 0.008,0.112706 0.12433,0.304522 0.0693,0.406795 -0.0619,0.115053 -0.28024,0.182232 -0.38868,0.247154 -0.33986,0.20347 -0.6812,0.403776 -1.02483,0.600775 -0.47198,0.270577 -0.94237,0.54349 -1.41525,0.812494 -0.17041,0.09694 -0.38913,0.298172 -0.58562,0.323984 -0.10621,0.01395 -0.20706,-0.07049 -0.29281,-0.121927 -0.2014,-0.120818 -0.40571,-0.236281 -0.61002,-0.351964 -0.67005,-0.379387 -1.33148,-0.773445 -2.00087,-1.154035 -0.22842,-0.129874 -0.70333,-0.295157 -0.85335,-0.510415 -0.0498,-0.07149 -0.0216,-0.194992 -0.0273,-0.277261 -0.0184,-0.269028 -0.0222,-0.534906 -0.0222,-0.805227 0,-0.953996 0.0564,-1.927503 0,-2.879295 l 0.68323,-0.270011 0.51241,-0.413211 m 55.29223,26.694583 h -0.0244 c -0.17939,-0.37752 -0.51156,-0.71318 -0.75925,-1.04923 -0.48199,-0.65393 -0.95396,-1.31564 -1.42639,-1.97647 -1.77664,-2.48513 -3.62518,-4.91682 -5.41336,-7.39344 -0.62194,-0.86137 -1.2775,-1.69847 -1.89634,-2.562085 -0.1472,-0.205423 -0.30198,-0.405121 -0.44984,-0.61002 -0.0523,-0.07243 -0.15127,-0.17114 -0.11906,-0.268409 0.0978,-0.295181 0.52846,-0.590552 0.74313,-0.805227 0.59002,-0.590016 1.16682,-1.191213 1.75686,-1.781259 1.22558,-1.225574 2.39033,-2.546381 3.70892,-3.674073 1.16839,-0.999235 2.46825,-1.833509 3.85533,-2.493099 1.13712,-0.540733 2.37851,-0.973728 3.63572,-1.108319 0.27111,-0.02902 1.10347,0.05576 1.11376,-0.337561 0.009,-0.349647 -0.33018,-0.268408 -0.57694,-0.268408 -0.64146,0 -1.31385,-0.0322 -1.95207,0.02854 -1.31029,0.12471 -2.66,0.06906 -3.97733,0.06906 -0.85642,0 -1.70832,-0.01048 -2.56208,-0.04784 -0.2345,-0.01026 -0.47427,0.01962 -0.70763,-0.0079 -0.63277,-0.07468 -1.31454,-0.0418 -1.95206,-0.04184 -0.18242,-1.2e-5 -0.51282,-0.100487 -0.64071,0.07672 -0.27973,0.387607 0.31234,0.46386 0.54311,0.482404 0.89573,0.07198 2.24523,0.419252 2.36264,1.514941 0.0238,0.221967 0.0123,0.465719 -0.0364,0.683223 -0.28718,1.282371 -1.48776,2.284805 -2.37506,3.172105 -1.73677,1.736776 -3.43696,3.509492 -5.17297,5.246173 -0.5932,0.59343 -1.1635,1.212304 -1.75685,1.805664 -0.24606,0.24605 -0.50928,0.60968 -0.82963,0.75642 0,-2.462139 -0.0244,-4.929194 -0.0244,-7.393443 0,-1.375286 -0.14101,-2.848509 0.17656,-4.196939 0.16688,-0.708577 0.69753,-1.294631 1.40949,-1.476779 0.31818,-0.08141 0.65177,-0.06486 0.97603,-0.08705 0.26942,-0.01844 1.03285,0.03845 0.91362,-0.412538 -0.0663,-0.250895 -0.42203,-0.170901 -0.62081,-0.170901 -0.6589,0 -1.3166,0.02124 -1.97646,0.02442 -1.63297,0.0079 -3.26696,0.08106 -4.90457,0.07317 -0.78053,-0.0038 -1.56063,-0.07318 -2.34247,-0.07318 -0.54817,0 -1.11232,0.01086 -1.65926,-0.02658 -0.20607,-0.01411 -0.50919,-0.09929 -0.60977,0.14868 -0.18566,0.457724 0.61456,0.396162 0.85378,0.412538 0.3488,0.02388 0.68368,0.01286 1.02483,0.110215 0.84723,0.241762 1.34417,0.902031 1.48648,1.746427 0.14141,0.839111 0.0391,1.691692 0.0761,2.537684 0.11135,2.54451 0.0234,5.113464 0.0234,7.661856 0,0.57692 0.0137,1.15572 -3.7e-4,1.73245 -0.0113,0.46202 -0.058,0.92937 3.7e-4,1.39085 -0.51984,-0.39757 -0.97358,-0.89874 -1.53725,-1.24898 -0.98468,-0.61184 -2.09623,-1.05897 -3.22091,-1.34007 -0.51361,-0.12837 -1.04498,-0.19621 -1.56165,-0.31465 v -0.0488 c 1.53825,-0.640457 3.10855,-1.520197 4.12629,-2.879291 1.68569,-2.25107 2.01881,-5.525853 0.0421,-7.710654 -0.35102,-0.387983 -0.7876,-0.706612 -1.2403,-0.965602 -2.95172,-1.688696 -6.42681,-1.455857 -9.68712,-1.232651 -0.82705,0.05662 -1.66085,0.06259 -2.48888,0.09882 -1.46275,0.06401 -2.92912,-0.09664 -4.39214,-0.09664 -0.33935,0 -0.68631,0.02099 -1.02484,-0.0022 -0.14611,-0.01 -0.35539,-0.07263 -0.47839,0.03912 -0.15194,0.138034 -0.0826,0.414378 0.11248,0.462465 0.20374,0.05023 0.42675,0.02538 0.63432,0.03959 0.72994,0.04997 1.64383,0.164129 2.09619,0.827448 0.14164,0.207681 0.23505,0.444951 0.3111,0.683222 0.21501,0.673631 0.20356,1.375924 0.2036,2.074069 3e-5,0.527078 0.0244,1.05711 0.0244,1.586052 v 6.393007 9.394305 c 0,1.29534 0.0662,2.61277 -0.0222,3.90413 -0.0275,0.401308 10e-4,0.795078 -0.0576,1.195638 -0.0856,0.581 -0.27705,1.29717 -0.77422,1.66878 -0.48208,0.36034 -1.17836,0.42061 -1.75684,0.48255 -0.30117,0.0322 -1.12127,-0.038 -0.89921,0.50475 0.0458,0.11199 0.21601,0.0768 0.31359,0.0768 h 0.97604 c 1.38249,0 2.76566,-0.0732 4.14813,-0.0732 1.10985,0 2.23633,-0.0248 3.34291,0.051 1.73168,0.1186 3.50578,0.31005 5.24618,0.19084 0.8702,-0.0596 1.72735,-0.25598 2.56208,-0.49988 1.83961,-0.5375 3.66505,-1.42714 4.97777,-2.86525 -0.037,0.46812 -0.0521,0.97338 -0.23067,1.41525 -0.48314,1.19534 -1.86471,1.23094 -2.96584,1.24453 -0.24547,0.003 -0.42434,0.22503 -0.26623,0.45991 0.0952,0.14142 0.4336,0.0768 0.58344,0.0768 0.57759,0 1.15684,-0.0235 1.73246,-0.0244 2.40748,-0.004 4.81562,0 7.22264,0 0.65919,0 1.31632,0.0244 1.97646,0.0244 0.15755,0 0.5634,0.0729 0.64593,-0.10086 0.0983,-0.2069 -0.0726,-0.42294 -0.27992,-0.43491 -1.16723,-0.0674 -2.50133,0.0229 -2.99969,-1.29429 -0.1311,-0.34651 -0.1412,-0.75719 -0.17655,-1.12244 -0.0759,-0.783738 -0.0447,-1.579028 -0.0447,-2.366878 v -6.73454 -1.29324 c 0,-0.19707 -0.0402,-0.44842 0.0366,-0.63442 0.0838,-0.20308 0.30172,-0.35372 0.44694,-0.51146 0.11955,-0.12985 0.35129,-0.49071 0.54131,-0.49504 0.18138,-0.004 0.3641,0.34318 0.45714,0.46968 0.36032,0.48992 0.72537,0.97678 1.08925,1.46405 1.51474,2.02841 2.9911,4.0876 4.52659,6.1002 1.12899,1.4798 2.21799,2.99067 3.35424,4.465348 0.60768,0.78868 1.1801,1.71731 2.06556,2.22358 0.84901,0.48542 1.73602,0.33075 2.65969,0.26748 1.07841,-0.0739 2.19038,-0.0485 3.26971,-0.001 0.50233,0.022 0.99577,0.19261 1.48845,0.2815 0.8156,0.14715 1.63792,0.24161 2.46448,0.2778 3.89367,0.17052 8.58166,-1.42419 10.12138,-5.342818 0.30572,-0.77805 0.48692,-1.55819 0.54395,-2.39128 0.0551,-0.80531 0.0159,-1.59969 -0.15894,-2.39127 -0.75938,-3.43819 -4.06971,-5.4912 -6.82187,-7.26393 -0.65952,-0.424811 -1.30361,-0.871574 -1.95206,-1.312844 -2.03131,-1.382303 -4.23443,-3.137177 -4.55597,-5.746503 -0.0655,-0.531825 -0.0416,-1.055335 0.0244,-1.586052 0.0514,-0.412955 0.17314,-0.827227 0.36445,-1.19564 1.27758,-2.460251 4.61926,-2.719647 6.8268,-1.385878 1.52465,0.921173 2.42118,2.714698 3.22498,4.240773 0.42486,0.80662 0.75794,1.651355 1.11472,2.488882 0.10575,0.248256 0.30533,0.827703 0.64871,0.429689 0.10418,-0.120759 0.0626,-0.355581 0.0626,-0.502891 V 80.879413 76.53607 c 0,-0.665905 0.10686,-1.325764 -0.56122,-1.697345 -0.36663,-0.203917 -0.79453,-0.315269 -1.19564,-0.428951 -0.81688,-0.231527 -1.64814,-0.380899 -2.48888,-0.491465 -3.88603,-0.511053 -8.61984,0.04474 -11.15373,3.422988 -1.36441,1.819069 -1.59209,4.503128 -0.73285,6.588217 0.44285,1.07466 1.20941,2.020888 2.02865,2.830398 0.7423,0.73348 1.63243,1.33804 2.48889,1.92838 1.54767,1.06679 3.1516,2.05328 4.63615,3.20993 1.71194,1.33381 3.17288,3.11206 3.53616,5.30533 0.121,0.73057 0.14342,1.48466 0.071,2.22047 -0.0522,0.53023 -0.19452,1.078108 -0.41823,1.561658 -0.97263,2.10231 -4.02778,2.40729 -5.94624,1.62382 -0.67164,-0.27429 -1.28576,-0.68995 -1.83006,-1.16719 -1.81235,-1.589068 -2.95457,-3.698918 -4.02011,-5.824808 -0.25611,-0.51096 -0.49214,-1.03934 -0.7728,-1.53725 -0.0852,-0.1511 -0.18429,-0.43819 -0.40446,-0.39518 -0.40474,0.0791 -0.21961,0.86455 -0.21961,1.176 0,1.2446 0.0629,2.48974 0.0732,3.73333 M 4.1413879,76.414066 h -0.0244 v 0.0732 c -0.0417,-0.123911 -0.0244,-0.283838 -0.0244,-0.414814 0,-1.368387 1.99186,-1.752348 2.43788,-0.414813 0.42156,1.264195 -1.35656,2.266058 -2.16567,1.171239 -0.0939,-0.127069 -0.17946,-0.262243 -0.22341,-0.414814 M 23.784038,74.81067 c 1.14991,-0.149824 1.85104,1.391864 0.97567,2.157267 -0.1946,0.170156 -0.45168,0.280704 -0.70726,0.317229 -0.72339,0.103375 -1.38888,-0.51458 -1.38893,-1.237114 -4e-5,-0.625218 0.51372,-1.158324 1.12052,-1.237382 m 16.98296,0.341611 c 1.22514,-0.13001 2.70118,0.464646 3.478,1.408188 0.63395,0.770001 0.96672,1.802007 1.06467,2.781692 0.27747,2.775097 -0.28805,6.349952 -3.27383,7.440951 -0.47467,0.17344 -0.98356,0.28176 -1.48845,0.31632 -0.50803,0.0348 -1.02612,0.008 -1.53725,0.002 -0.1051,-0.001 -0.46668,0.0196 -0.53245,-0.0634 -0.0489,-0.0618 -0.0288,-0.18044 -0.0288,-0.25368 v -0.610017 -2.391279 -5.416979 c 0,-0.836175 -0.0515,-1.900279 0.52037,-2.586486 0.48334,-0.579996 1.11843,-0.555279 1.79771,-0.627361 m -36.6825501,0.326419 -0.008,0.01626 0.008,-0.01626 m 0.008,0.05693 -0.0244,0.0244 0.0244,-0.0244 m 0,1.049235 v 0.658822 h -0.0244 l 0.0244,-0.658822 m 13.8596501,2.464481 v 0.0488 l -2.41567,1.464048 -0.63443,0.382901 -0.29281,0.141925 -0.31721,-0.163687 -0.65882,-0.395274 -2.44008,-1.454314 v -0.0488 c 0.82495,-0.505012 1.65927,-0.995554 2.48888,-1.493322 0.21163,-0.126972 0.42463,-0.250847 0.63442,-0.380851 0.083,-0.05145 0.1883,-0.146024 0.29281,-0.133692 0.28194,0.03327 0.66085,0.390948 0.90283,0.539206 0.53887,0.330143 1.07329,0.667442 1.61046,1.000356 0.26989,0.167261 0.53599,0.369812 0.82962,0.492704 M 5.6540679,77.902458 c 0.31042,-0.06424 0.60816,-0.200211 0.85403,-0.40175 0.0918,-0.07526 0.24345,-0.311849 0.36819,-0.312296 0.19897,-7.38e-4 0.53485,0.299357 0.70544,0.401707 0.60265,0.361587 1.20299,0.726693 1.80566,1.088291 0.18613,0.111674 0.6361701,0.284601 0.7173001,0.493866 0.0809,0.20867 0.0147,0.556643 0.0147,0.779849 v 1.805659 1.244441 c 0,0.138524 0.047,0.384831 -0.0251,0.507223 -0.1147601,0.194801 -0.5369201,0.344679 -0.7313501,0.454763 -0.60396,0.341968 -1.2072,0.687124 -1.80566,1.038619 -0.19887,0.116809 -0.57243,0.438952 -0.80304,0.443956 -0.0921,0.002 -0.17962,-0.130755 -0.24621,-0.183364 -0.16152,-0.127609 -0.34279,-0.224498 -0.5368,-0.292166 -0.0789,-0.02752 -0.23934,-0.03526 -0.29213,-0.104537 -0.0461,-0.06053 -0.0261,-0.180671 -0.0342,-0.253081 -0.0271,-0.242561 -0.0153,-0.489232 -0.0153,-0.732983 0,-0.844235 -0.0285,-1.691442 -0.0244,-2.537684 0.006,-1.144557 0.0488,-2.295821 0.0488,-3.440514 M 22.417348,77.285318 c 0.10964,-0.01709 0.19802,0.110643 0.26841,0.17572 0.19103,0.17662 0.41423,0.286602 0.65882,0.368216 0.0986,0.0329 0.24444,0.05104 0.2648,0.172141 0.0812,0.483059 0.004,1.045487 0.004,1.535916 v 3.147704 1.439648 c 0,0.205065 0.0493,0.484519 -0.014,0.680565 -0.0358,0.110763 -0.18394,0.118138 -0.27884,0.153768 -0.22489,0.08444 -0.4233,0.18997 -0.60992,0.343268 -0.0684,0.05616 -0.1513,0.168285 -0.24507,0.177656 -0.1396,0.01395 -0.36726,-0.185174 -0.48705,-0.253551 l -1.26884,-0.725412 c -0.40713,-0.233398 -0.81757,-0.461918 -1.22004,-0.703257 -0.12889,-0.07729 -0.38136,-0.164098 -0.46294,-0.292565 -0.0736,-0.115821 -0.0251,-0.369402 -0.0251,-0.50291 v -1.244441 -1.708056 c 0,-0.21611 -0.0641,-0.553444 0.0147,-0.755371 0.0879,-0.225088 0.61161,-0.417512 0.81491,-0.53422 l 1.80566,-1.038768 c 0.21723,-0.124536 0.53439,-0.397639 0.78082,-0.436051 M 4.0926679,77.414441 c 0.27636,0.240672 0.626,0.45531 1.00043,0.488016 l 0.0244,2.488882 -0.0244,4.489749 c -0.28716,0.0061 -0.84053,0.202873 -0.96703,0.486169 -0.0833,0.186503 -0.0334,0.555756 -0.0334,0.758272 h -0.0244 c 0,-2.112731 -0.0244,-4.229477 -0.0244,-6.34421 v -1.683656 c 0,-0.195105 -0.0588,-0.514871 0.0488,-0.683222 m 10.2239401,8.296274 c -0.28709,-0.09148 -0.56784,-0.325634 -0.82963,-0.477662 -0.62723,-0.364237 -1.25491,-0.728754 -1.87886,-1.098716 -0.22624,-0.134145 -0.78366,-0.344661 -0.88472,-0.596271 -0.10778,-0.268325 -0.0425,-0.757521 -0.0425,-1.048257 0,-0.675062 -0.003,-1.350218 1e-5,-2.025267 0.002,-0.319564 0.0753,-0.659722 -1e-5,-0.976033 0.30168,0.05444 0.61518,0.333117 0.87842,0.487754 0.63515,0.373102 1.275,0.739656 1.90327,1.124189 0.21364,0.130761 0.75393,0.32847 0.85323,0.564245 0.13036,0.309507 0.0252,0.856572 0.0252,1.191124 0,0.951917 -0.0244,1.904829 -0.0244,2.854894 m 4.12373,-6.173404 v 2.879295 0.805227 l -0.0181,0.387851 -0.2747,0.203398 -0.58562,0.345733 -1.73245,1.019955 -0.92724,0.531945 V 82.83142 c 0,-0.322793 -0.1119,-0.902681 0.035,-1.193364 0.12229,-0.242018 0.66176,-0.439858 0.89225,-0.578143 0.56864,-0.34117 1.13938,-0.678749 1.70805,-1.019937 0.28245,-0.169465 0.58475,-0.410852 0.90283,-0.502665 m -4.14814,10.492351 c -0.33127,0.0489 -0.65323,0.22917 -0.90283,0.44627 -0.0953,0.0829 -0.24931,0.33547 -0.3905,0.31011 -0.15606,-0.028 -0.32653,-0.18346 -0.46352,-0.26151 -0.36681,-0.20901 -0.73181,-0.42105 -1.09804,-0.631 -0.99396,-0.56982 -1.9835401,-1.14745 -2.9769001,-1.71834 -0.30206,-0.17359 -0.60403,-0.3479 -0.90283,-0.52706 -0.12226,-0.0733 -0.30655,-0.13916 -0.4,-0.24853 -0.0727,-0.0851 0.002,-0.22932 0.0248,-0.32244 0.0606,-0.24388 0.0483,-0.48683 -0.002,-0.732026 -0.019,-0.09277 -0.11424,-0.262273 -0.0606,-0.351161 0.11203,-0.18552 0.51977,-0.333426 0.70597,-0.439947 0.60323,-0.345096 1.20293,-0.696626 1.80566,-1.042604 0.18369,-0.105437 0.5659601,-0.429481 0.7808301,-0.398396 0.22195,0.03211 0.48881,0.270351 0.68322,0.381316 0.55443,0.316472 1.11005,0.632187 1.65925,0.957637 0.35558,0.210713 0.71517,0.415326 1.07364,0.621094 0.12442,0.07142 0.36109,0.157396 0.43854,0.281307 0.05,0.08005 0.0251,0.21763 0.0251,0.30796 v 0.70763 2.65969 m 4.48975,-5.892156 c 0.12457,-0.0171 0.26546,0.107385 0.36601,0.167714 0.27373,0.164229 0.55401,0.31699 0.82963,0.477984 0.53486,0.312409 1.07627,0.614024 1.61046,0.927773 0.13029,0.07653 0.49105,0.202885 0.54421,0.350595 0.0276,0.07669 -0.0329,0.184555 -0.0504,0.259163 -0.0332,0.141057 -0.0416,0.294527 -0.0364,0.439217 0.006,0.15251 0.13442,0.47436 0.0745,0.60489 -0.0542,0.11816 -0.27808,0.19151 -0.3855,0.25281 -0.32691,0.18652 -0.65051,0.37897 -0.97603,0.5679 -1.10429,0.64091 -2.21109,1.27797 -3.31851,1.91366 -0.30935,0.17757 -0.61389,0.36433 -0.92723,0.53484 -0.086,0.0468 -0.22401,0.17623 -0.3219,0.18063 -0.0741,0.003 -0.12867,-0.10245 -0.16966,-0.15053 -0.11904,-0.13964 -0.2565,-0.26462 -0.41127,-0.36388 -0.1613,-0.10344 -0.58034,-0.1635 -0.68255,-0.30754 -0.11659,-0.1643 -0.0251,-0.6655 -0.0251,-0.8659 v -1.85447 c 0,-0.25328 -0.0558,-0.63944 0.0391,-0.876149 0.0398,-0.0991 0.16736,-0.155668 0.25368,-0.207139 0.21775,-0.129819 0.43903,-0.254433 0.65883,-0.380756 0.70844,-0.407147 1.4067,-0.834143 2.12287,-1.227499 0.23144,-0.127121 0.54243,-0.407242 0.80522,-0.443313 M 5.2880879,85.473862 c 0.78868,-0.09306 1.39599,0.736051 1.28253,1.45689 -0.0899,0.57097 -0.57487,0.97418 -1.13613,1.04226 -0.80145,0.0972 -1.49841,-0.73733 -1.33252,-1.50587 0.12028,-0.557205 0.6465,-0.929604 1.18612,-0.99328 m 18.5446101,-9.3e-5 c 0.80763,-0.103649 1.44084,0.75966 1.30631,1.505793 -0.0959,0.53192 -0.59033,0.92965 -1.1111,0.99345 -0.73913,0.0905 -1.43508,-0.59521 -1.36229,-1.33506 0.0616,-0.626156 0.55448,-1.085565 1.16708,-1.164183 m -19.7158501,1.627793 -0.0244,0.0244 0.0244,-0.0244 m -0.0244,0.21961 v 0.63442 h -0.0244 l 0.0244,-0.63442 m 8.6866801,3.97733 h 0.0244 l -0.0932,0.68322 0.0932,0.61002 c -0.5062,0.1489 -1.00667,0.55714 -1.46405,0.81935 -0.97642,0.55976 -1.9599501,1.11055 -2.9281001,1.68426 -0.35547,0.21064 -0.7154,0.4138 -1.07364,0.6197 -0.14263,0.082 -0.32431,0.24444 -0.48801,0.27213 -0.15909,0.0269 -0.40381,-0.29916 -0.53682,-0.38572 -0.31943,-0.20788 -0.71883,-0.30064 -1.09804,-0.27464 -0.3299,0.0226 -0.90624,0.16555 -1.07636,0.48619 -0.0791,0.14913 -0.0456,0.48912 -0.0461,0.65846 h -0.0244 l -0.0244,-5.66099 v -1.73246 l 0.0244,-0.97603 c 0.62439,0.38884 1.21715,0.65266 1.95206,0.35496 0.19953,-0.0808 0.39761,-0.19795 0.56122,-0.33789 0.0717,-0.0614 0.16124,-0.19487 0.26841,-0.17829 0.14238,0.022 0.31556,0.17587 0.43921,0.24915 0.30647,0.18161 0.62068,0.35011 0.92723,0.53177 1.01737,0.60288 2.0547701,1.17241 3.0745001,1.77132 0.36488,0.21429 0.73107,0.42768 1.09804,0.63833 0.0866,0.0497 0.29507,0.21737 0.39041,0.16716 m 26.81649,-2.89673 c 0.37323,-0.044 0.77102,-0.007 1.14684,-0.007 1.84669,0 3.75291,0.38415 5.09881,1.75721 0.41217,0.42049 0.78087,0.96786 1.05554,1.48809 0.35188,0.66648 0.57459,1.388 0.72675,2.12287 0.56274,2.71771 0.4212,6.355138 -2.19615,7.997878 -0.34934,0.21926 -0.75246,0.36036 -1.14683,0.47263 -0.39467,0.11235 -0.81049,0.24607 -1.22004,0.28524 -0.8995,0.086 -1.86158,0.15793 -2.7573,0.0101 -0.40486,-0.0668 -0.8548,-0.17853 -1.17114,-0.45255 -0.69523,-0.60221 -0.68332,-1.69359 -0.68332,-2.530358 v -5.80739 c 0,-1.22692 0.0816,-2.48519 -0.002,-3.70892 -0.0248,-0.36202 -0.002,-0.71261 0.002,-1.07364 0.001,-0.11311 -0.0418,-0.32997 0.0289,-0.42545 0.056,-0.0757 0.22725,-0.0789 0.31284,-0.0848 0.26752,-0.0185 0.53918,-0.0126 0.80522,-0.044 m -25.27923,1.67669 c -0.0897,0.15536 -0.55307,0.32984 -0.73202,0.31721 0.21752,-0.16027 0.46452,-0.26213 0.73202,-0.31721 m 0.90283,0.0732 -0.0244,0.0244 0.0244,-0.0244 m 0.0488,0.0244 0.0732,0.0244 -0.0244,0.0488 0.0732,-0.0244 -0.0244,0.0732 0.0732,-0.0488 v 0.0732 h -0.0976 l -0.12201,-0.0488 v -0.0244 l 0.0488,-0.0732 m -1.61046,0.17081 0.0244,0.0244 -0.0244,-0.0244 m -0.122,0.0732 -0.0244,0.0244 0.0244,-0.0244 m -0.0488,0.0244 0.0488,0.0244 v 0.0244 l -0.0488,-0.0488 m 0.0976,0.0244 -0.0244,0.0244 0.0244,-0.0244 m 2.04967,0.80522 h -0.0244 c -0.26786,-0.37955 -0.8133,-0.62047 -1.26884,-0.49423 -0.22959,0.0636 -0.39688,0.20937 -0.61002,0.29903 0.0623,-0.19377 0.32875,-0.31158 0.51241,-0.36216 0.46799,-0.12885 1.24796,0.004 1.39085,0.55736 m -1.19564,-0.45629 c 1.19821,-0.1712 1.90683,1.3876 0.85403,2.08859 -0.13725,0.0914 -0.30009,0.16503 -0.46362,0.19053 -0.41715,0.0651 -0.87439,-0.0695 -1.16612,-0.38538 -0.48838,-0.52879 -0.30663,-1.36487 0.28769,-1.7192 0.14878,-0.0887 0.31609,-0.14997 0.48802,-0.17454 m -1.43965,0.0171 -0.0244,0.0244 0.0244,-0.0244 m -0.0976,0.21961 -0.0244,0.0244 0.0244,-0.0244 m 3.44051,0.0488 -0.0244,0.0244 0.0244,-0.0244 m 0.0244,0.0488 -0.0244,0.0244 0.0244,-0.0244 m -3.61132,0.122 -0.0244,0.0244 0.0244,-0.0244 m 3.66012,0 -0.0244,0.0244 0.0244,-0.0244 m 0,1.34205 -0.0244,0.0244 0.0244,-0.0244 m -0.0488,0.1464 -0.0244,0.0244 0.0244,-0.0244 m -0.0488,0.0976 -0.0976,0.14641 0.0976,-0.14641 m -2.46448,0.0488 -0.0244,0.0244 0.0244,-0.0244 m 0.85403,0.31721 v 0.0244 h 0.0732 v 0.0244 c -0.35427,0 -0.6273,-0.0419 -0.92723,-0.244 l 0.0244,-0.0732 0.53682,0.21147 0.31314,0.0203 -0.0203,0.0366 m -0.75643,-0.21961 0.0244,0.0244 -0.0244,-0.0244 m 2.26928,0.0244 -0.0244,0.0244 0.0244,-0.0244 m -1.22004,0.0813 0.008,0.008 c -0.012,0.004 -0.027,-0.008 -0.008,-0.008 m 7.14943,3.43238 c -0.0693,0.30222 -0.1205,0.56548 -0.0953,0.87843 0.01,0.12132 0.12165,0.32136 0.052,0.43402 -0.067,0.10835 -0.26476,0.16606 -0.37145,0.2297 -0.32378,0.19312 -0.65175,0.37888 -0.97603,0.57104 -0.47594,0.28203 -0.96126,0.54762 -1.43965,0.82526 -0.17453,0.1013 -0.42748,0.33107 -0.63442,0.34065 -0.1045,0.005 -0.20785,-0.0904 -0.29281,-0.14106 -0.20118,-0.11993 -0.40641,-0.23373 -0.61002,-0.3495 -0.67749,-0.38519 -1.34916,-0.7802 -2.02527,-1.16781 -0.21994,-0.12609 -0.6597,-0.27938 -0.80455,-0.48937 -0.0456,-0.0661 -0.023,-0.17658 -0.032,-0.25293 -0.0305,-0.25814 -0.0174,-0.52097 -0.0174,-0.78083 0,-0.91931 0.0168,-1.83995 0.0244,-2.75729 0.33074,-0.0489 0.65009,-0.22469 0.90273,-0.43727 0.0886,-0.0746 0.24482,-0.32919 0.36707,-0.31867 0.1483,0.0128 0.35742,0.19026 0.48705,0.26425 0.39972,0.22816 0.79592,0.46238 1.19564,0.69057 1.42402,0.81291 2.81919,1.69737 4.27014,2.46081 m -7.85706,-2.63529 v 2.70849 0.73203 c 0,0.0929 0.024,0.22866 -0.0251,0.31201 -0.0805,0.13658 -0.32897,0.20867 -0.46294,0.28113 -0.36015,0.19481 -0.71608,0.39951 -1.07364,0.59909 -0.51959,0.29002 -1.03855,0.58135 -1.56165,0.86496 -0.18375,0.0996 -0.42549,0.32166 -0.63442,0.34625 -0.21589,0.0254 -0.6197201,-0.33033 -0.8052301,-0.44163 -0.60245,-0.36147 -1.19612,-0.74077 -1.80566,-1.09022 -0.19256,-0.1104 -0.64779,-0.2936 -0.75478,-0.48913 -0.0597,-0.10917 0.0326,-0.33857 0.0516,-0.45567 0.0274,-0.16871 -0.0156,-0.34911 -0.0563,-0.51241 -0.021,-0.0841 -0.0597,-0.17897 0.0112,-0.24917 0.33384,-0.33064 0.9259,-0.55203 1.33393,-0.78595 0.94525,-0.54189 1.8852301,-1.09295 2.8305001,-1.63485 0.38302,-0.21958 0.76381,-0.44308 1.14683,-0.66266 0.14602,-0.0837 0.34711,-0.25233 0.51206,-0.28235 0.13622,-0.0248 0.29912,0.23582 0.39077,0.31637 0.25013,0.21979 0.5803,0.36977 0.90283,0.44371 m 0.65883,-0.78082 -0.0244,0.0244 0.0244,-0.0244 m 0.1952,0 -0.0244,0.0244 0.0244,-0.0244 m -1.95206,0.0244 c 0.23015,0.18678 0.4573,0.36009 0.73202,0.47758 0.11943,0.0511 0.31977,0.0727 0.36601,0.20564 -0.31212,-0.0461 -0.63607,-0.203 -0.87843,-0.40175 -0.0831,-0.0681 -0.22201,-0.16749 -0.2196,-0.28147 m 1.58605,0 -0.0244,0.0244 0.0244,-0.0244 m 0.122,0 -0.0244,0.0244 0.0244,-0.0244 m 0.14641,0 v 0.0244 l -0.24401,0.0732 0.24401,-0.0976 m 1.02483,0 c -0.19449,0.2761 -0.75185,0.72703 -1.12243,0.63442 l 0.51241,-0.24215 0.61002,-0.39227 m -10.7851501,2.78867 c 1.49592,-0.17168 1.7731,2.30876 0.26841,2.47768 -0.39206,0.044 -0.77463,-0.0439 -1.07328,-0.31723 -0.59875,-0.54798 -0.48094,-1.52872 0.19485,-1.96142 0.18769,-0.12018 0.39077,-0.17386 0.61002,-0.19903 m 18.5690101,8e-5 c 1.50712,-0.1623 1.76918,2.29567 0.24401,2.47767 -1.28813,0.15372 -1.98317,-1.55344 -0.85403,-2.28359 0.18487,-0.11955 0.39328,-0.17074 0.61002,-0.19408 m -19.7727901,0.57042 -0.008,0.0163 0.008,-0.0163 m 0.0325,1.05737 -0.0244,0.0244 0.0244,-0.0244 m -0.0244,0.24401 v 0.56122 h -0.0244 l 0.0244,-0.56122 m 13.8596501,2.440078 -2.44008,1.45918 -0.61002,0.37218 -0.29281,0.15533 -0.29281,-0.16132 -0.65882,-0.39916 -2.46448,-1.47501 v -0.0488 l 2.41568,-1.439648 0.65882,-0.39171 0.31721,-0.17156 0.26841,0.13217 0.58562,0.36567 1.68366,1.04615 0.82962,0.556528 m -12.2980001,5.78299 c -0.001,-1.69971 -0.0244,-3.4001 -0.0244,-5.09977 0,-0.44723 -0.005,-0.89483 9e-5,-1.342038 0.001,-0.12184 -0.0204,-0.42602 0.0494,-0.5243 0.0618,-0.0871 0.26888,-0.11016 0.36533,-0.14926 0.21285,-0.0863 0.41749,-0.22142 0.5856,-0.37788 0.0701,-0.0653 0.16029,-0.2137 0.26939,-0.20358 0.24502,0.0227 0.59273,0.33752 0.80426,0.46444 0.56193,0.33715 1.12496,0.6725 1.68366,1.0148 0.20454,0.12531 0.5467,0.249628 0.6929001,0.442548 0.0901,0.11896 0.0391,0.38622 0.0391,0.52887 v 1.39085 1.73245 c 0,0.20406 0.0648,0.54008 -0.0147,0.72879 -0.0782,0.18567 -0.5675501,0.36377 -0.7417001,0.46318 -0.62676,0.35779 -1.25655,0.71208 -1.87886,1.07757 -0.17253,0.10133 -0.5285,0.41187 -0.72984,0.40009 -0.10948,-0.006 -0.25235,-0.18429 -0.3438,-0.24528 -0.22484,-0.14997 -0.48323,-0.27917 -0.75642,-0.30148 m 17.9589901,-7.003028 -0.0244,7.003028 c -0.2799,0.0229 -0.56152,0.15732 -0.78083,0.32984 -0.0914,0.0719 -0.21718,0.27013 -0.34161,0.27213 -0.0889,10e-4 -0.19631,-0.10106 -0.26841,-0.14605 -0.18297,-0.11419 -0.37411,-0.21636 -0.56122,-0.32363 -0.60997,-0.34969 -1.2219,-0.6962 -1.83006,-1.04916 -0.21931,-0.12729 -0.60874,-0.25942 -0.7661,-0.45882 -0.088,-0.11156 -0.0391,-0.36803 -0.0391,-0.50317 v -1.29324 -1.70806 c 0,-0.20944 -0.0618,-0.53522 0.0147,-0.73097 0.0829,-0.21199 0.59761,-0.39991 0.7905,-0.513208 0.60679,-0.35636 1.21887,-0.70429 1.83006,-1.05316 0.22026,-0.12572 0.53221,-0.3969 0.78083,-0.43928 0.139,-0.0237 0.26934,0.18346 0.36601,0.25951 0.22614,0.1779 0.54056,0.32903 0.82963,0.35424 M 4.0926479,98.545392 c 0.27337,0.25162 0.61825,0.47134 1.00043,0.48801 0,1.560838 0.0244,3.122548 0.0244,4.684958 0,0.70035 0.11083,1.50546 -0.0127,2.19474 -0.0231,0.12915 -0.15213,0.11866 -0.25574,0.14869 -0.19044,0.0552 -0.37746,0.14303 -0.53682,0.26161 -0.26957,0.20061 -0.2196,0.54758 -0.2196,0.85987 h -0.0244 c 0,-2.10495 -0.0244,-4.21326 -0.0244,-6.31981 v -1.659248 c 0,-0.18759 -0.0597,-0.49993 0.0488,-0.65882 m 10.2239301,8.320668 c -0.29271,-0.13027 -0.57531,-0.34844 -0.85403,-0.51215 l -1.75685,-1.02849 c -0.27043,-0.15863 -0.81515,-0.35348 -0.97167,-0.63519 -0.0581,-0.10466 -0.0288,-0.27056 -0.0288,-0.38625 0,-0.26068 -0.0244,-0.51927 -0.0244,-0.78083 0,-0.96079 0.0244,-1.91982 0.0244,-2.87929 0.30681,0.0554 0.61216,0.33134 0.87843,0.48775 0.62759,0.36863 1.25469,0.73743 1.87886,1.11174 0.21985,0.13184 0.76164,0.32751 0.86032,0.57315 0.12456,0.31009 0.0181,0.86032 0.0181,1.19467 0,0.95191 -0.0244,1.90483 -0.0244,2.85489 m 4.09934,-6.1978 0.0244,1.04923 v 1.87886 0.80523 l -0.0218,0.36082 -0.24661,0.17262 -0.58562,0.34986 -1.87886,1.10352 -0.80523,0.45326 v -2.9037 -0.80522 c 0,-0.10248 -0.0245,-0.25161 0.027,-0.34478 0.14357,-0.2597 0.6742,-0.4566 0.92459,-0.60685 0.54347,-0.32611 1.09108,-0.64557 1.63486,-0.97116 0.30151,-0.18053 0.60306,-0.40601 0.92723,-0.54169 m -5.22177,11.34637 c -0.2616,-0.0506 -0.52249,-0.28195 -0.75643,-0.40918 -0.64291,-0.34967 -1.26954,-0.73117 -1.90326,-1.09674 -0.8215101,-0.4739 -1.6467001,-0.94162 -2.4644801,-1.42191 -0.21946,-0.12889 -0.44023,-0.2554 -0.65883,-0.38578 -0.0773,-0.0461 -0.21658,-0.0901 -0.26737,-0.16685 -0.0847,-0.12803 0.10364,-0.50272 0.0943,-0.66768 -0.01,-0.17404 -0.20089,-0.55862 -0.13893,-0.7031 0.0876,-0.20426 0.58679,-0.39197 0.77563,-0.49939 0.58728,-0.3341 1.16982,-0.67663 1.75686,-1.01113 0.20565,-0.11718 0.4969201,-0.36927 0.7320201,-0.4009 0.16151,-0.0217 0.3807,0.17366 0.51242,0.25252 0.40289,0.24123 0.81277,0.47262 1.22004,0.7064 0.50516,0.28998 1.01061,0.57954 1.51285,0.87452 0.1871,0.10988 0.49926,0.2176 0.64071,0.38182 0.13899,0.16137 0.0378,0.68022 0.0429,0.88728 0.0172,0.70329 -3.7e-4,1.41566 -3.7e-4,2.12287 0,0.229 0.085,0.66478 -0.0147,0.87077 -0.0474,0.0978 -0.32617,0.12864 -0.42449,0.16883 -0.24407,0.0998 -0.50615,0.28151 -0.65883,0.49765 m 1.73246,-0.61002 c 0,-0.93319 -0.0244,-1.87084 -0.0244,-2.80609 0,-0.26225 0.004,-0.51986 0.0222,-0.78083 0.007,-0.0954 -0.0233,-0.22613 0.0273,-0.31201 0.078,-0.13247 0.33192,-0.23033 0.46294,-0.30486 0.37554,-0.21364 0.74722,-0.4341 1.12244,-0.6483 0.53038,-0.30278 1.05458,-0.61594 1.58605,-0.91685 0.18862,-0.1068 0.44211,-0.33014 0.65882,-0.3593 0.21871,-0.0294 0.59549,0.30053 0.78083,0.4081 0.60851,0.35317 1.21848,0.70481 1.83006,1.05274 0.1899,0.10802 0.62113,0.26275 0.73038,0.45531 0.0549,0.0967 -0.0344,0.25839 -0.0552,0.35676 -0.0448,0.21174 -0.0488,0.4731 0.006,0.68323 0.0232,0.0886 0.1067,0.21746 0.0356,0.30166 -0.10716,0.12684 -0.35426,0.20791 -0.49733,0.29371 -0.40305,0.24169 -0.81116,0.47671 -1.22004,0.70822 -0.97172,0.5502 -1.94081,1.10806 -2.9037,1.67357 -0.32404,0.19031 -0.64966,0.37833 -0.97603,0.56462 -0.12521,0.0715 -0.27595,0.20049 -0.41386,0.23833 -0.11916,0.0327 -0.2604,-0.1877 -0.34257,-0.25507 -0.23261,-0.19068 -0.52754,-0.32826 -0.82962,-0.35294 m -10.8339601,-3.1477 c 0.0577,-0.17306 -0.0514,-0.45312 0,-0.65882 0.039,-0.15618 0.14622,-0.35764 0.24401,-0.48802 0.4551,-0.60682 1.28362,-0.60504 1.83006,-0.19521 0.56544,0.42409 0.56671,1.47823 0,1.90326 -0.18859,0.14145 -0.40982,0.23666 -0.63443,0.29281 -0.38722,0.0968 -0.82179,-0.11417 -1.07363,-0.36601 -0.10321,-0.1032 -0.30432,-0.50344 -0.36601,-0.48801 m 19.6914501,-1.6278 c 1.31016,-0.17067 1.88971,1.7028 0.73202,2.31635 -0.14209,0.0753 -0.30253,0.14163 -0.46361,0.16097 -1.29065,0.15494 -1.87773,-1.58648 -0.80523,-2.2867 0.15623,-0.102 0.35216,-0.16656 0.53682,-0.19062 m 40.89575,17.97634 c -0.31857,-0.16575 -0.44974,-0.69024 -0.59125,-1.00044 -0.415,-0.9097 -0.82839,-1.81956 -1.23542,-2.73289 -1.03308,-2.3181 -2.09974,-4.62342 -3.15862,-6.92983 -0.33564,-0.73105 -0.66482,-1.46506 -1.00044,-2.19607 -0.26076,-0.56796 -0.58537,-1.14712 -0.73729,-1.75686 -0.0381,-0.15293 -0.0639,-0.30573 -0.06,-0.46361 0.0236,-0.96109 1.18562,-0.94313 1.85364,-1.05285 0.12625,-0.0207 0.16063,-0.18546 0.0611,-0.2663 -0.0927,-0.0753 -0.26721,-0.0473 -0.37787,-0.0473 h -0.95163 -3.70893 -1.09803 c -0.12392,0 -0.31803,-0.0344 -0.35824,0.12246 -0.0181,0.0704 -0.009,0.15901 0.069,0.18417 0.38716,0.12558 0.76748,0.0858 1.14323,0.30028 0.95524,0.54525 1.37085,1.71484 1.7982,2.6628 1.87468,4.15851 3.76368,8.3199 5.71189,12.44441 0.45002,0.95271 0.9078,1.91109 1.32298,2.87929 0.14457,0.33715 0.29852,0.91448 0.78075,0.76121 0.28157,-0.0895 0.41837,-0.72862 0.51746,-0.98081 0.38084,-0.96925 0.78472,-1.92928 1.15226,-2.9037 0.94504,-2.5054 1.98618,-4.9802 2.97997,-7.46665 0.34117,-0.85361 0.69837,-1.70301 1.02544,-2.56208 0.18739,-0.4922 0.33573,-1.05559 0.59597,-1.51285 0.0413,0.78767 0.0407,1.56313 0.39674,2.29367 0.58385,1.19802 1.57277,1.97236 2.65336,2.69275 1.97563,1.31709 4.34766,2.32184 5.41698,4.57869 -0.14208,0.10247 -0.0405,0.40756 -0.0262,0.56122 0.0523,0.5621 0.13187,1.1206 0.17045,1.68366 0.023,0.3353 0.1085,0.71712 0.029,1.04923 -0.29716,1.24212 -1.59882,1.99665 -2.78416,2.16471 -1.17134,0.16608 -2.44598,-0.0663 -3.41611,-0.76765 -0.72927,-0.52721 -1.30123,-1.30115 -1.73586,-2.08028 -0.36681,-0.65754 -0.64239,-1.35156 -0.85062,-2.07407 -0.0711,-0.24671 -0.0952,-0.65756 -0.43922,-0.51241 0.0551,0.23101 0.051,0.47278 0.0802,0.70762 0.11622,0.934 0.16844,1.87091 0.27887,2.80609 0.0454,0.3846 -0.0234,0.94655 0.18457,1.28873 0.0976,0.16061 0.36803,0.24803 0.53002,0.32768 0.49767,0.24467 1.02587,0.43597 1.56165,0.57684 1.69373,0.44533 3.58598,0.46394 5.24617,-0.14488 0.57736,-0.21173 1.04146,-0.60332 1.58605,-0.85273 0.0942,0.27634 0.49109,0.37889 0.73203,0.49423 0.79749,0.38177 1.64575,0.58541 2.51328,0.72777 2.73211,0.44834 6.10864,-0.47385 7.2323,-3.24727 0.18712,-0.46187 0.30456,-0.9675 0.35221,-1.46404 0.041,-0.42728 0.0308,-0.84463 -0.0387,-1.26885 -0.49553,-3.02526 -3.63331,-4.31657 -5.93541,-5.81948 -1.26586,-0.8264 -2.61712,-1.84822 -2.91318,-3.42842 -0.24897,-1.32886 0.0397,-2.83648 1.10752,-3.7504 1.08872,-0.93184 2.98419,-0.87067 4.19694,-0.24503 1.16867,0.60291 1.88148,1.89176 2.29176,3.0926 0.11648,0.34095 0.14344,0.71287 0.27033,1.04923 0.36203,-0.0873 0.19435,-0.62604 0.16668,-0.90283 -0.0761,-0.7614 -0.0199,-1.5329 -0.11092,-2.29367 -0.0294,-0.24567 0.0246,-0.6072 -0.15885,-0.80071 -0.14543,-0.15339 -0.38815,-0.23089 -0.58013,-0.30706 -0.49403,-0.196 -1.01638,-0.34482 -1.53726,-0.44901 -1.82214,-0.36449 -3.80722,-0.23255 -5.41697,0.78153 -0.49412,0.31126 -0.82395,0.73287 -1.24445,1.11686 0,-0.30448 0.0288,-0.83412 -0.14258,-1.09706 -0.11381,-0.17467 -0.38014,-0.25888 -0.56504,-0.33284 -0.50193,-0.20078 -1.03158,-0.35758 -1.56165,-0.46361 -1.00766,-0.20158 -2.03392,-0.28028 -3.0501,-0.097 -0.57551,0.1038 -1.1345,0.37148 -1.70806,0.4462 -0.608,0.0792 -1.2453,0.0162 -1.85446,0.0311 -0.83664,0.0205 -1.67636,3.7e-4 -2.51328,3.7e-4 h -0.61002 c -0.0636,3e-5 -0.16998,-0.018 -0.21524,0.0391 -0.24328,0.30715 0.36335,0.29858 0.50805,0.30213 0.69385,0.017 1.71984,0.22004 1.89062,1.02519 0.0689,0.32477 -0.01,0.68883 -0.10255,1.00043 -0.15904,0.53368 -0.41468,1.04268 -0.61534,1.56165 -0.50217,1.29873 -1.02345,2.59009 -1.54842,3.87973 -1.16918,2.87223 -2.26477,5.77457 -3.45524,8.63789 m 10.68755,-16.65878 c 1.7767,-0.20964 3.18486,0.8891 4.01578,2.3599 0.0785,0.13899 0.18272,0.30224 0.20095,0.46362 0.0357,0.3159 -0.13554,0.66464 -0.18014,0.97603 -0.0341,0.23781 -0.0104,0.49206 -0.0104,0.73202 0,1.04615 0.34128,1.94066 0.95189,2.7817 0.53948,0.74306 1.27011,1.26173 2.02501,1.76499 1.85461,1.23641 4.20457,2.21488 5.31184,4.26201 0.7414,1.37069 0.82127,3.54185 -0.26511,4.75815 -0.54256,0.60744 -1.35167,0.94049 -2.14304,1.06328 -1.79939,0.27919 -3.68418,-0.45267 -4.68721,-2.01491 -0.10916,-0.17001 0.039,-0.37557 0.11831,-0.53682 0.19604,-0.39875 0.30885,-0.80897 0.39,-1.24444 0.21301,-1.14302 0.0407,-2.40248 -0.59614,-3.39171 -1.17397,-1.82356 -3.30147,-2.82175 -5.08288,-3.95163 -1.03914,-0.65908 -2.04698,-1.34822 -2.70691,-2.41698 -0.85525,-1.38509 -0.72181,-3.74304 0.55973,-4.84842 0.22705,-0.19584 0.43577,-0.13384 0.67951,-0.24165 0.11164,-0.0494 0.0475,-0.19904 0.15364,-0.26054 0.3495,-0.20244 0.8753,-0.2086 1.26522,-0.2546 m -71.2503501,0.33464 -0.0244,0.0244 0.0244,-0.0244 m -0.0244,0.122 -0.0244,0.0244 0.0244,-0.0244 m 0,0.0732 v 0.63442 h -0.0244 l 0.0244,-0.63442 m 8.7598901,4.02613 c -0.13145,0.56817 -0.23771,1.00328 0.0244,1.56165 l -0.0732,-0.0488 c -0.37553,0.3873 -1.04403,0.64312 -1.51285,0.90969 -0.97924,0.55676 -1.9508401,1.12681 -2.9281001,1.68708 -0.39053,0.22389 -0.78308,0.44523 -1.17124,0.67321 -0.14327,0.0842 -0.34961,0.27175 -0.51146,0.29958 -0.0933,0.0161 -0.16418,-0.0963 -0.22092,-0.15337 -0.14575,-0.14654 -0.32502,-0.26936 -0.51206,-0.35827 -0.6421,-0.3052 -1.30557,-0.19018 -1.87886,0.18739 -0.13099,-0.55018 -0.0244,-1.2399 -0.0244,-1.80566 v -3.70892 -1.68366 c 0,-0.26016 -0.0495,-0.57971 0.0244,-0.82962 0.59174,0.34042 1.06849,0.64182 1.78126,0.42851 0.2594,-0.0776 0.50201,-0.21527 0.70752,-0.39042 0.0921,-0.0785 0.17825,-0.2343 0.31733,-0.18194 0.46199,0.17394 0.91183,0.52682 1.34202,0.77142 1.04431,0.59376 2.0811301,1.20093 3.1233101,1.79839 0.47096,0.26999 0.991,0.69312 1.51285,0.84375 m 0.29281,-0.46362 -0.0244,0.0732 -0.0488,-0.0732 h 0.0732 m 1.29324,0.0315 c 1.2277,-0.15993 1.96845,1.49564 0.85403,2.18741 -0.16887,0.10482 -0.36435,0.17113 -0.56122,0.1967 -1.25471,0.16294 -1.87863,-1.55481 -0.78083,-2.20931 0.14955,-0.0892 0.31484,-0.15224 0.48802,-0.1748 m -1.41525,0.16375 -0.0244,0.0244 0.0244,-0.0244 m -0.1464,0.2196 -0.0244,0.0244 0.0244,-0.0244 m 3.34291,1.78126 -0.14641,0.31721 c 0.29362,0.0936 0.58455,0.32795 0.85403,0.48117 0.65332,0.37144 1.30405,0.74843 1.95207,1.12902 0.80932,0.47533 1.63266,0.92737 2.44008,1.40584 0.27059,0.16034 0.76784,0.33684 0.96025,0.58577 0.0618,0.08 -0.0219,0.21682 -0.0412,0.30233 -0.0542,0.24065 -0.0456,0.46758 0.003,0.70763 0.018,0.0883 0.10009,0.24977 0.0379,0.32952 -0.15052,0.19297 -0.55306,0.32706 -0.76505,0.45156 -0.61538,0.36143 -1.2355,0.71444 -1.85446,1.06972 -0.24413,0.14014 -0.59588,0.44952 -0.87843,0.47949 -0.14807,0.0157 -0.36134,-0.1743 -0.48801,-0.24587 -0.41705,-0.23564 -0.83139,-0.47512 -1.24445,-0.71772 -0.51826,-0.30438 -1.04896,-0.5878 -1.56165,-0.9016 -0.14382,-0.088 -0.44538,-0.18595 -0.53614,-0.32823 -0.0516,-0.0809 -0.022,-0.21623 -0.026,-0.30768 -0.01,-0.22035 -0.0234,-0.43723 -0.0234,-0.65882 v -2.14727 c 0,-0.2545 -0.0785,-0.68424 0.0391,-0.91675 0.0506,-0.10006 0.30209,-0.13002 0.40011,-0.17596 0.2834,-0.13284 0.52395,-0.30681 0.73202,-0.54215 -0.32976,0.17603 -0.83347,0.80549 -1.26884,0.53682 v -0.0244 c 0.63996,-0.002 0.98509,-0.4478 1.41525,-0.82963 m -3.19651,0.0244 -0.0244,0.0244 0.0244,-0.0244 m 0.0488,0.0732 -0.0244,0.0244 0.0244,-0.0244 m 0.0488,0.0976 c 0.33682,0.23704 0.5979,0.51305 1.02484,0.58562 l -0.0244,0.0732 -0.0488,-0.0488 0.0244,0.0732 v 0.0244 c -0.29498,-0.0807 -0.9149,-0.37064 -0.97604,-0.70762 m 1.14684,0.80523 c 0.0421,0.98169 0.0244,1.96858 0.0244,2.95249 0,0.27461 0.0175,0.55599 -0.006,0.82963 -0.007,0.0862 0.007,0.20828 -0.043,0.28328 -0.0795,0.11998 -0.31473,0.19361 -0.43888,0.26107 -0.35235,0.19147 -0.70108,0.39304 -1.04923,0.59221 -0.5327,0.30474 -1.07753,0.58836 -1.61046,0.89238 -0.19334,0.11029 -0.48453,0.35809 -0.70762,0.3774 -0.22456,0.0194 -0.6387601,-0.34373 -0.8296301,-0.462 -0.62171,-0.38521 -1.25508,-0.75233 -1.87886,-1.1345 -0.18328,-0.11229 -0.61902,-0.27698 -0.73039,-0.45599 -0.0527,-0.0847 0.0252,-0.26252 0.0411,-0.35385 0.039,-0.22439 0.0306,-0.44024 -0.0387,-0.65882 -0.0256,-0.0807 -0.0703,-0.17742 0.004,-0.24486 0.37353,-0.33828 0.96823,-0.57458 1.40713,-0.82511 0.97037,-0.55388 1.9424801,-1.10804 2.9037001,-1.67765 0.40383,-0.23931 0.81406,-0.46763 1.22004,-0.70325 0.16067,-0.0933 0.37521,-0.28493 0.56122,-0.31181 0.1388,-0.0201 0.26692,0.18918 0.3661,0.26508 0.22586,0.17285 0.52848,0.31026 0.80514,0.3743 m -0.33348,-0.20335 0.008,0.0163 -0.008,-0.0163 m 0.35788,0.008 v 0.0244 h -0.0732 l 0.0732,-0.0244 m -0.14641,0.0976 -0.0244,0.0244 0.0244,-0.0244 m -10.0531301,2.19607 v 0.43922 h -0.0244 l 0.0244,-0.43922 m 0.90283,0.20227 c 1.32203,-0.17222 1.98193,1.72668 0.78083,2.36514 -0.13399,0.0712 -0.28699,0.14253 -0.43922,0.16098 -0.44167,0.0536 -1.03406,-0.11438 -1.26108,-0.53645 -0.0868,-0.16134 -0.0322,-0.45136 -0.0322,-0.63028 0,-0.24398 -0.0567,-0.57532 0.0382,-0.80523 0.12568,-0.30467 0.60775,-0.51434 0.91347,-0.55416 m 19.0082301,-8e-5 c 1.32461,-0.16268 1.89965,1.71444 0.75642,2.36619 -0.13475,0.0768 -0.28338,0.14353 -0.43921,0.16028 -0.20501,0.022 -0.44093,0.0198 -0.63442,-0.0559 -1.24963,-0.48845 -1.01033,-2.30754 0.31721,-2.47058 m -5.9782,4.33636 v 0.0488 l -2.48888,1.5092 -0.61002,0.37717 -0.29281,0.15104 -0.29281,-0.13564 -0.61002,-0.36791 -1.73246,-1.04097 -0.90283,-0.56609 2.48888,-1.48066 0.70763,-0.42261 0.31721,-0.15388 0.29281,0.1614 0.65882,0.40853 1.53725,0.95163 0.92723,0.55999 m -13.9328601,-2.07407 -0.0244,0.0244 0.0244,-0.0244 m 0,0.0976 v 0.31721 h -0.0244 l 0.0244,-0.31721 m 2.58867,0.0905 c 0.18746,-0.0542 0.59299,0.30861 0.75424,0.40118 0.6334,0.36362 1.25263,0.75281 1.87886,1.12853 0.16996,0.10198 0.61351,0.2747 0.6929001,0.45899 0.10982,0.25491 0.0147,0.74171 0.0147,1.01971 0,0.79852 0.0244,1.59306 0.0244,2.39128 0,0.24537 -0.0244,0.48718 -0.0244,0.73203 0,0.0952 0.0284,0.24822 -0.0251,0.33208 -0.13156,0.20632 -0.6152,0.3792 -0.82895,0.50121 -0.59423,0.33919 -1.19131,0.67494 -1.78126,1.02143 -0.21403,0.1257 -0.53661,0.40738 -0.78047,0.4439 -0.13398,0.0201 -0.34769,-0.24175 -0.46397,-0.31111 -0.15646,-0.0933 -0.5575,-0.15633 -0.65815,-0.2932 -0.054,-0.0734 -0.0298,-0.23907 -0.0391,-0.32787 -0.0353,-0.33679 -0.0104,-0.6864 -0.0104,-1.02483 v -4.02614 c 0,-0.42994 -0.0204,-0.86552 0.0203,-1.29324 0.0109,-0.11487 -0.0302,-0.27751 0.0189,-0.38363 0.045,-0.0975 0.2357,-0.12203 0.32689,-0.15816 0.20697,-0.082 0.41427,-0.20174 0.58562,-0.34458 0.0887,-0.074 0.18201,-0.23493 0.29499,-0.26758 m 15.93154,0.0739 c 0.0992,6.4e-4 0.17816,0.11416 0.24401,0.17504 0.19009,0.17576 0.41621,0.30098 0.65882,0.38731 0.0839,0.0298 0.25566,0.0317 0.28506,0.13093 0.0439,0.14817 0.008,0.35469 0.008,0.5088 v 1.07363 3.53812 1.26884 c 0,0.1471 0.0478,0.39531 -0.0147,0.53002 -0.0458,0.0987 -0.23491,0.10683 -0.32689,0.13747 -0.24322,0.081 -0.47222,0.20522 -0.65882,0.38272 -0.0699,0.0665 -0.1641,0.20744 -0.26841,0.21586 -0.12946,0.0105 -0.35321,-0.18549 -0.46362,-0.25091 -0.38736,-0.22955 -0.78296,-0.44524 -1.17124,-0.67328 -0.43749,-0.25695 -0.88195,-0.50158 -1.31764,-0.76159 -0.11561,-0.069 -0.41448,-0.1773 -0.47329,-0.29811 -0.10999,-0.22597 -0.0147,-0.71388 -0.0147,-0.96583 v -2.36688 -0.70762 c 0,-0.0974 -0.0223,-0.22882 0.0391,-0.31209 0.12298,-0.16673 0.41923,-0.26799 0.5953,-0.3714 0.46949,-0.27574 0.94433,-0.54202 1.41524,-0.81532 0.34941,-0.20278 0.69821,-0.40651 1.04924,-0.60651 0.111,-0.0633 0.28342,-0.22006 0.41481,-0.2192 m -18.52021,8.13191 h -0.0244 c -0.12584,-0.52856 -0.0244,-1.18902 -0.0244,-1.73246 v -3.58692 -1.65925 c 0,-0.26085 -0.0486,-0.57805 0.0244,-0.82963 0.19631,0.0916 0.37492,0.20126 0.58562,0.26114 0.0678,0.0193 0.19332,0.02 0.22928,0.091 0.062,0.12236 0.0147,0.36626 0.0147,0.50184 v 1.19564 3.80652 1.07364 c 0,0.13016 0.0394,0.33784 -0.0147,0.45804 -0.041,0.091 -0.19394,0.0994 -0.27808,0.12767 -0.1867,0.0628 -0.38409,0.13745 -0.51242,0.29272 m 10.22394,0.51241 c -0.27761,-0.10678 -0.5457,-0.32703 -0.80523,-0.47766 -0.61981,-0.35972 -1.23294,-0.73084 -1.85446,-1.08764 -0.27123,-0.1557 -0.84497,-0.37346 -0.99303,-0.65553 -0.16331,-0.31109 -0.0562,-0.87561 -0.0562,-1.21968 v -2.95243 l 0.87842,0.50206 1.90327,1.12792 0.65882,0.39529 0.25368,0.19775 0.0147,0.38787 v 0.85402 2.9281 m 4.19694,-6.34421 c 0,1.0587 0.10406,2.17092 0.004,3.22091 -0.0247,0.25936 0.10771,0.76948 -0.0329,0.99092 -0.0568,0.0895 -0.19976,0.1392 -0.28845,0.19067 -0.23701,0.13756 -0.47187,0.27948 -0.70762,0.41919 -0.85457,0.5064 -1.71193,1.00886 -2.56208,1.52252 l -0.002,-0.56122 -0.0222,-2.48888 0.0244,-0.78082 0.0251,-0.36346 0.26773,-0.19289 0.65883,-0.40016 1.70805,-1.01996 0.92723,-0.53682 m 14.66489,0.64148 c 1.27894,-0.1662 1.85717,1.66554 0.75642,2.30057 -0.14197,0.0819 -0.30018,0.15038 -0.46361,0.17393 -1.2699,0.183 -1.95682,-1.54343 -0.87843,-2.26464 0.17474,-0.11687 0.37763,-0.18283 0.58562,-0.20986 m -0.19521,3.11625 c -0.10234,0.91619 0,1.90673 0,2.83049 v 0.75643 c 0,0.10131 0.0249,0.24548 -0.0288,0.33641 -0.0759,0.12862 -0.33101,0.2095 -0.45924,0.27923 -0.36819,0.20022 -0.73317,0.40859 -1.09804,0.61475 -0.51808,0.29272 -1.04139,0.57595 -1.56165,0.86468 -0.17359,0.0963 -0.43246,0.33141 -0.63442,0.33653 -0.22161,0.006 -0.56622,-0.31344 -0.75643,-0.42383 -0.59111,-0.34307 -1.17411,-0.70377 -1.75686,-1.06075 -0.1944,-0.1191 -0.5811,-0.25693 -0.70685,-0.44947 -0.0608,-0.093 -7.4e-4,-0.33654 -7.4e-4,-0.44875 0,-0.31522 -0.0657,-0.5765 -0.1464,-0.87843 0.53543,-0.19751 1.04402,-0.58182 1.53725,-0.86808 0.94181,-0.5466 1.88862,-1.08452 2.83049,-1.63116 0.38133,-0.22131 0.7644,-0.43964 1.14684,-0.6589 0.12606,-0.0723 0.31646,-0.25135 0.46362,-0.25879 0.13583,-0.007 0.26852,0.2043 0.36601,0.28099 0.24458,0.1924 0.53596,0.24333 0.80522,0.37865 m 7.85706,2.80609 c -0.0403,0.27294 -0.14551,0.4951 -0.11786,0.78083 0.0123,0.12704 0.14302,0.39673 0.0903,0.50722 -0.0359,0.0751 -0.14886,0.11618 -0.21639,0.15649 l -0.56122,0.33182 c -0.63681,0.37926 -1.28332,0.74344 -1.92767,1.10979 -0.19288,0.10966 -0.52869,0.40726 -0.75642,0.39598 -0.18466,-0.009 -0.44901,-0.2414 -0.61002,-0.3333 -0.49728,-0.28385 -0.99071,-0.57423 -1.48845,-0.85721 -0.39254,-0.22318 -0.78187,-0.45133 -1.17124,-0.67976 -0.12536,-0.0735 -0.38268,-0.16202 -0.45107,-0.29462 -0.1143,-0.22159 -0.0369,-0.62908 -0.0369,-0.87323 v -2.12287 c 0,-0.21966 -0.096,-0.73513 0.0251,-0.91957 0.054,-0.0822 0.22912,-0.10001 0.31654,-0.13464 0.21183,-0.0839 0.41181,-0.19556 0.58562,-0.34397 0.075,-0.064 0.1586,-0.18255 0.2684,-0.17749 0.14916,0.007 0.33659,0.17476 0.46362,0.24759 0.35751,0.20496 0.71557,0.40959 1.07364,0.6136 1.01049,0.57575 2.02147,1.15296 3.0257,1.7396 0.46574,0.27207 0.97465,0.69115 1.48844,0.85374 m -26.57247,4.39214 c -0.28662,0.0593 -0.57616,0.16687 -0.80523,0.35302 -0.0925,0.0751 -0.23426,0.2937 -0.36601,0.28031 -0.13855,-0.0141 -0.31881,-0.17745 -0.43922,-0.24657 -0.35701,-0.20492 -0.71614,-0.40596 -1.07363,-0.61003 -1.10186,-0.62901 -2.20267,-1.26249 -3.29411,-1.90927 -0.30725,-0.18208 -0.6209,-0.3532 -0.92723,-0.5369 -0.10558,-0.0633 -0.29843,-0.12649 -0.37471,-0.22202 -0.0675,-0.0845 0.0209,-0.23857 0.0413,-0.32944 0.0542,-0.24197 0.0525,-0.49059 -0.006,-0.73203 -0.0243,-0.10074 -0.13095,-0.28157 -0.074,-0.3809 0.0633,-0.1104 0.28175,-0.18932 0.38875,-0.25352 0.33058,-0.19834 0.66559,-0.3909 1.00044,-0.58195 0.4648,-0.26518 0.92564,-0.53755 1.39084,-0.80204 0.15368,-0.0874 0.38101,-0.28582 0.56122,-0.29121 0.11508,-0.003 0.22399,0.0955 0.31721,0.1514 0.20896,0.12537 0.42305,0.24166 0.63442,0.36285 0.72568,0.41602 1.45036,0.83518 2.17167,1.25882 0.2162,0.12697 0.69168,0.29137 0.82895,0.49924 0.054,0.0818 0.0251,0.23646 0.0251,0.33012 2e-5,0.25236 0.0244,0.50307 0.0244,0.75643 0,0.96319 0.0513,1.94429 -0.0244,2.90369 m 8.07667,-2.85489 c -0.19928,-0.006 -0.37156,0.12588 -0.53682,0.2245 -0.29996,0.17901 -0.60331,0.35224 -0.90283,0.53192 -1.13409,0.68037 -2.29082,1.32967 -3.44051,1.98332 -0.31925,0.18151 -0.63673,0.36543 -0.95163,0.55437 -0.10383,0.0623 -0.28377,0.21339 -0.41032,0.20515 -0.0933,-0.006 -0.18036,-0.162 -0.2486,-0.21814 -0.17955,-0.14771 -0.39324,-0.26087 -0.60993,-0.34265 -0.0836,-0.0316 -0.26047,-0.0514 -0.30248,-0.13978 -0.038,-0.08 -0.011,-0.19905 -0.0169,-0.28541 -0.0162,-0.23676 -0.0222,-0.46965 -0.0222,-0.70762 v -1.97647 c 0,-0.25884 -0.0595,-0.6589 0.0391,-0.90026 0.0567,-0.13866 0.32541,-0.24081 0.44889,-0.3149 0.41939,-0.25163 0.84711,-0.48947 1.26884,-0.73716 0.49382,-0.29003 0.99671,-0.56521 1.48845,-0.85867 0.20554,-0.12266 0.47009,-0.35518 0.70762,-0.39864 0.2276,-0.0416 0.61172,0.29893 0.80523,0.40695 0.62286,0.34768 1.23934,0.70869 1.85446,1.06996 0.18773,0.11026 0.59883,0.25055 0.70659,0.4446 0.0716,0.129 -0.0439,0.38752 -0.0474,0.5317 -0.008,0.32955 0.0693,0.61629 0.17045,0.92723 M 4.0924879,128.26547 v 0.39041 h -0.0244 l 0.0244,-0.39041 m 38.4068701,0.0558 c 0.15518,-0.0188 0.31699,0.0169 0.46361,0.0663 0.40837,0.13769 0.73359,0.45608 0.84697,0.87833 0.17728,0.6602 -0.29466,1.44775 -0.99337,1.53275 -0.22087,0.0269 -0.44873,0.0138 -0.65883,-0.0613 -1.25465,-0.44847 -0.90646,-2.2647 0.34162,-2.41605 m -20.08187,0.0662 0.0732,0.122 h -0.0244 l -0.0488,-0.122 m 1.65926,0.0561 c 0.88918,-0.0846 1.41918,0.86602 1.11138,1.62753 -0.18596,0.46008 -0.60991,0.70432 -1.08698,0.74911 -0.90657,0.0851 -1.51923,-0.84887 -1.14925,-1.65194 0.20225,-0.439 0.66088,-0.68058 1.12485,-0.7247 M 4.9709179,128.468 c 1.32993,-0.19001 2.01798,1.72022 0.80522,2.36488 -0.13651,0.0726 -0.28506,0.13595 -0.43921,0.15816 -0.42163,0.0607 -1.04917,-0.12577 -1.25826,-0.53364 -0.0861,-0.16789 -0.035,-0.44642 -0.035,-0.63028 0,-0.24397 -0.0567,-0.5753 0.0382,-0.80522 0.1265,-0.30668 0.58176,-0.50999 0.88907,-0.5539 m 18.5690101,0.0659 -0.0244,0.0244 0.0244,-0.0244 m 2.14727,0.0244 -0.0244,0.0244 0.0244,-0.0244 m 0.0244,0.0488 0.0244,0.0488 -0.0244,-0.0488 m -0.36601,1.41525 c -0.10534,0.32111 -0.436,0.85313 -0.82963,0.82962 l 0.0244,0.0488 h -0.0244 l -0.0732,-0.0732 h 0.122 l -0.0488,-0.0244 v -0.0244 c 0.33295,-0.1212 0.61783,-0.42213 0.73203,-0.75642 h 0.0976 m 0.58562,0.39041 -0.0244,0.0244 0.0244,-0.0244 m -0.0244,0.0488 -0.0244,0.0244 0.0244,-0.0244 m -0.0244,0.0488 -0.0244,0.0244 0.0244,-0.0244 m 10.73635,2.07407 v 0.0488 l -2.44008,1.4738 -0.58562,0.35634 -0.29281,0.15373 -0.29281,-0.15381 -0.63442,-0.37946 -1.65925,-0.99673 -0.85403,-0.47827 c 0.0803,-0.14632 0.27608,-0.21401 0.41481,-0.29778 0.30929,-0.18676 0.61738,-0.37522 0.92723,-0.56112 0.47869,-0.28721 0.96586,-0.56177 1.43965,-0.85686 0.16071,-0.10009 0.44255,-0.3452 0.63442,-0.34761 0.26564,-0.003 0.67752,0.38604 0.90283,0.52125 0.81909,0.49149 1.64357,0.99067 2.44008,1.51772 m -10.76889,-2.009 -0.008,0.0163 0.008,-0.0163 m -1.0655,0.0813 0.0244,0.0244 -0.0244,-0.0244 m 1.00043,0.0244 -0.0244,0.0244 0.0244,-0.0244 m -3.29411,0.0244 -0.0244,0.0244 0.0244,-0.0244 m 3.14771,0 c -0.007,0.14916 -0.16005,0.28211 -0.26877,0.37601 -0.27804,0.24017 -0.65148,0.44755 -1.02447,0.47802 l 0.53681,-0.27472 0.75643,-0.57931 m -21.5459101,0.0244 -0.0244,0.0244 0.0244,-0.0244 m 21.6679101,0 c 0.0646,0.2243 0.56223,0.41925 0.75643,0.53343 0.54813,0.32229 1.09605,0.64957 1.63485,0.98721 0.17043,0.10681 0.50016,0.22346 0.60935,0.39526 0.0501,0.0788 0.0251,0.21537 0.0251,0.30458 0,0.22542 -0.0172,0.45875 0.004,0.68322 0.1023,1.07482 -0.0451,2.16938 0.0447,3.24531 h -4.51415 v -3.73333 -1.04923 c 0,-0.12032 -0.0385,-0.32164 0.0147,-0.43156 0.0538,-0.111 0.43042,-0.15685 0.54649,-0.21041 0.3726,-0.17195 0.57286,-0.47806 0.87843,-0.72448 m -1.13871,0.0651 0.008,0.0163 -0.008,-0.0163 m 16.56,-0.0163 c 0.22852,0.32437 0.69917,0.5996 1.09804,0.63442 l 0.0244,5.46578 h -4.63615 v -2.80609 c 0,-0.27752 0.0243,-0.55343 0.0244,-0.82963 5e-5,-0.13029 -0.0333,-0.31541 0.0147,-0.43816 0.0863,-0.22073 0.61498,-0.40779 0.8149,-0.52382 0.61722,-0.35822 1.23407,-0.71741 1.85447,-1.07013 0.24353,-0.13847 0.52981,-0.37926 0.80522,-0.43237 m -18.59341,0.0244 -0.0244,0.0244 0.0244,-0.0244 m 1.09803,0 -0.0244,0.0244 0.0244,-0.0244 m -19.5938401,0.0244 v 0.31721 h -0.0244 l 0.0244,-0.31721 m 20.3258701,0 -0.0244,0.0244 0.0244,-0.0244 m 0.1464,0 0.0244,0.0244 -0.0244,-0.0244 m -1.95206,0.0244 c 0.29835,0.38674 0.686,0.65499 1.17124,0.75643 l 0.0244,5.27057 h -8.24747 c 0.1262,-0.19341 0.39652,-0.32379 0.5498,-0.51242 0.42569,-0.52384 0.51095,-1.21017 0.27982,-1.83006 1.37784,-0.8296 2.77724,-1.62603 4.17254,-2.42596 0.66539,-0.38146 1.35848,-0.91452 2.07407,-1.18536 l -0.0244,-0.0732 m 1.29324,0.008 c 0.0189,0 0.004,0.0121 -0.008,0.008 l 0.008,-0.008 m 0.29281,-0.008 -0.0244,0.0244 0.0244,-0.0244 m 0.0488,0.0976 v 0.0244 l -0.244,-0.0244 v -0.0244 h 0.0732 v -0.0244 h -0.0732 l 0.244,0.0488 m 0.17081,-0.0407 c 0.0189,0 0.004,0.0122 -0.008,0.008 l 0.008,-0.008 m -0.43922,0.0163 -0.0244,0.0244 0.0244,-0.0244 m 0.36602,0.008 c 0.0189,0 0.004,0.0121 -0.008,0.008 l 0.008,-0.008 M 14.096698,136.83 v 0.0244 l -10.0531301,0.0244 v -3.80647 -1.14684 l 0.0244,-0.61002 c 0.58426,0.21268 1.02397,0.43466 1.65925,0.21951 0.22648,-0.0767 0.45368,-0.18722 0.63442,-0.34601 0.0829,-0.0729 0.19053,-0.24042 0.31721,-0.21884 0.17061,0.0291 0.36286,0.20448 0.51242,0.28969 0.39882,0.22723 0.80132,0.45033 1.19564,0.68517 1.24262,0.74005 2.5034301,1.45287 3.7577201,2.17292 0.14345,0.0824 0.58434,0.24637 0.64182,0.40357 0.0279,0.0763 -0.033,0.18542 -0.0524,0.25891 -0.042,0.15929 -0.0589,0.32356 -0.0516,0.48801 0.0234,0.53391 0.37916,1.30135 0.90187,1.51494 0.15161,0.062 0.35127,0.0467 0.51242,0.0467 m 9.39431,-5.44138 -0.0244,0.0244 0.0244,-0.0244 m 0.0488,0.0244 0.17081,0.0244 -0.0488,0.0976 -0.1464,-0.0488 v -0.0244 l 0.0488,0.0244 -0.0488,-0.0488 0.0244,-0.0244 m -0.0976,0.0244 -0.0244,0.0244 0.0244,-0.0244 m 0.0488,0.0244 -0.0244,0.0244 0.0244,-0.0244 m 0.0976,0 v 0.0244 h 0.0732 v -0.0244 h -0.0732 m 9.44311,5.41698 h -2.68409 -0.68322 l -0.27808,-0.0251 -0.0391,-0.24333 v -0.70762 l 0.0244,-2.9037 0.87843,0.49769 1.75686,1.04321 0.68322,0.40751 0.29214,0.20399 0.0251,0.50729 0.0244,1.22004 m 4.07494,-3.83093 0.0244,3.83093 h -2.58649 -0.65882 c -0.071,0 -0.19393,0.0223 -0.25368,-0.0251 -0.081,-0.0641 -0.0391,-0.29735 -0.0391,-0.38973 v -0.92723 c 0,-0.12011 -0.0281,-0.28325 0.0425,-0.38814 0.17731,-0.2634 0.68771,-0.45016 0.95791,-0.6123 l 1.63486,-0.9809 c 0.27961,-0.16777 0.5726,-0.39558 0.87843,-0.50755 m -22.66835,0.88575 c 1.32582,-0.18942 2.01403,1.72232 0.80523,2.36489 -0.14574,0.0775 -0.29908,0.13698 -0.46362,0.15842 -1.32399,0.17248 -1.98115,-1.61043 -0.85403,-2.33322 0.15359,-0.0985 0.33156,-0.16424 0.51242,-0.19009 m 0.78082,2.89638 -0.0244,0.0244 0.0244,-0.0244 m 0.29281,0 v 0.0244 h -0.244 z"
       id="path2" /></g></svg>
