<?xml version="1.0" encoding="UTF-8" standalone="no"?>
<!-- Created with Inkscape (http://www.inkscape.org/) -->

<svg
   width="66.913124mm"
   height="66.913132mm"
   viewBox="0 0 66.913124 66.913132"
   version="1.1"
   id="svg1"
   xml:space="preserve"
   xmlns:inkscape="http://www.inkscape.org/namespaces/inkscape"
   xmlns:sodipodi="http://sodipodi.sourceforge.net/DTD/sodipodi-0.dtd"
   xmlns="http://www.w3.org/2000/svg"
   xmlns:svg="http://www.w3.org/2000/svg"><sodipodi:namedview
     id="namedview1"
     pagecolor="#ffffff"
     bordercolor="#000000"
     borderopacity="0.25"
     inkscape:showpageshadow="2"
     inkscape:pageopacity="0.0"
     inkscape:pagecheckerboard="0"
     inkscape:deskcolor="#d1d1d1"
     inkscape:document-units="mm" /><defs
     id="defs1" /><g
     inkscape:label="Layer 1"
     inkscape:groupmode="layer"
     id="layer1"
     transform="translate(-118.67472,-102.62066)"><g
       style="opacity:1;fill:none;fill-rule:nonzero;stroke:none;stroke-width:0;stroke-linecap:butt;stroke-linejoin:miter;stroke-miterlimit:10;stroke-dasharray:none"
       transform="matrix(0.74347917,0,0,0.74347917,118.67471,102.62066)"
       id="g1">
	<path
   d="M 45,0 C 20.147,0 0,20.147 0,45 0,69.853 20.147,90 45,90 69.853,90 90,69.853 90,45 90,20.147 69.853,0 45,0 Z m 0,22.007 c 8.899,0 16.14,7.241 16.14,16.14 0,8.9 -7.241,16.14 -16.14,16.14 -8.9,0 -16.14,-7.24 -16.14,-16.14 0,-8.899 7.24,-16.14 16.14,-16.14 z m 0,61.836 c -11.135,0 -21.123,-4.885 -27.957,-12.623 3.177,-5.75 8.144,-10.476 14.05,-13.341 2.009,-0.974 4.354,-0.958 6.435,0.041 2.343,1.126 4.857,1.696 7.473,1.696 2.615,0 5.13,-0.571 7.473,-1.696 2.083,-1 4.428,-1.015 6.435,-0.041 5.906,2.864 10.872,7.591 14.049,13.341 C 66.123,78.957 56.135,83.843 45,83.843 Z"
   style="opacity:1;fill:#faf4e8;fill-rule:nonzero;stroke:none;stroke-width:1;stroke-linecap:butt;stroke-linejoin:miter;stroke-miterlimit:10;stroke-dasharray:none"
   stroke-linecap="round"
   id="path1" />
</g></g></svg>
